<svg width="50" height="48" viewBox="0 0 50 48" fill="none" xmlns="http://www.w3.org/2000/svg">
<path fill-rule="evenodd" clip-rule="evenodd" d="M25.1075 0.623535C11.7314 0.623535 0.885742 11.2034 0.885742 24.2196C0.885742 37.2358 11.7426 47.7823 25.1075 47.7823C38.4723 47.7823 49.3292 37.2136 49.3292 24.2196C49.3292 11.2256 38.4723 0.623535 25.1075 0.623535ZM22.0198 40.1617C18.8096 38.5374 15.9449 35.7117 15.0978 33.4199C14.4592 31.5324 14.4086 29.4961 14.9528 27.5793C16.0404 25.1579 17.284 22.8093 18.6758 20.5484C24.3495 10.8585 25.6537 7.55438 24.695 5.07351C24.4721 4.48389 24.3718 4.07227 24.4832 4.13902C25.9635 6.11587 27.2724 8.21494 28.3957 10.4135C30.5693 14.9414 30.2684 16.4432 26.0661 22.5064C22.187 28.0688 21.0946 30.6276 21.2507 33.7314C21.3026 35.9368 22.1632 38.0466 23.6696 39.6611C24.1033 40.1179 24.4373 40.6596 24.6505 41.2519C23.7256 41.0168 22.8395 40.6496 22.0198 40.1617ZM25.7874 36.8242C25.1346 36.1259 24.6203 35.3105 24.2715 34.4212C23.5135 32.3519 24.2715 30.4273 27.6155 25.6325C28.5629 24.253 29.633 22.5953 29.9786 21.9723C30.8913 20.3525 31.3675 18.5241 31.3607 16.6657L31.227 15.5532L31.8958 16.866C32.4941 17.9832 32.7316 19.2578 32.5758 20.515C32.7216 21.9121 32.4501 23.321 31.7955 24.5645C30.9774 26.1118 30.0499 27.5989 29.02 29.0145C26.5342 32.4187 25.6759 34.0874 25.8654 35.6894C25.924 36.0836 25.8974 36.4857 25.7874 36.8687V36.8242ZM36.1649 30.8056C34.9953 32.5567 33.6427 34.1789 32.1299 35.6449C30.7934 36.9562 29.5704 38.3779 28.4738 39.8947C28.3623 40.2173 28.1728 40.4732 28.0279 40.4732C27.883 40.4732 27.7938 39.8613 27.8941 38.6598C28.0502 36.2568 29.0088 34.2098 31.4054 31.4953C34.0917 28.3581 35.3847 25.0873 35.1395 22.1059L35.028 20.6707L35.6411 21.5941C36.5329 22.956 37.0507 24.5278 37.1427 26.1522C37.2346 27.7766 36.8974 29.3966 36.1649 30.8501V30.8056Z" fill="white"/>
</svg>
