<svg width="500" height="199" viewBox="0 0 500 199" fill="none" xmlns="http://www.w3.org/2000/svg">
<path fill-rule="evenodd" clip-rule="evenodd" d="M211.385 3.42551L243.166 54.4239L274.763 3.42551H211.385ZM59.3134 42.783V91.5641H116.225C127.866 91.3793 136.181 81.9557 135.626 66.804C135.257 53.1305 127.311 42.5982 113.083 42.783H59.3134ZM388.77 41.4895C422.4 42.0439 438.66 62.5541 440.138 100.249C437.552 142.747 417.78 159.377 385.26 157.529C353.109 156.79 338.142 136.28 336.848 99.879C337.772 65.5105 352.554 43.7069 388.77 41.4895ZM206.396 196.333L243.166 140.16L279.567 196.517L206.396 196.333ZM58.759 196.702H0L0.369576 3.24072H141.354L195.494 77.521C189.581 112.259 171.473 130.367 141.539 131.845L58.5743 132.03L58.759 196.702ZM278.644 95.8139L345.717 2.6864C443.834 -8.21543 480.789 14.3273 496.865 65.5105C500.93 90.825 501.3 116.139 495.387 141.454C470.627 193.191 433.302 204.278 354.956 196.148L278.644 95.8139Z" fill="black"/>
</svg>
