<svg width="145" height="16" viewBox="0 0 145 16" fill="none" xmlns="http://www.w3.org/2000/svg">
<path fill-rule="evenodd" clip-rule="evenodd" d="M8.71447 3.86299H4.98085V7.42214H8.70139C9.86596 7.42214 10.3806 6.89001 10.3806 5.64693C10.3806 4.40384 9.86596 3.86299 8.70139 3.86299H8.71447ZM118.908 4.11161H115.768V11.9016H119.257C121.648 11.9016 122.311 9.91703 122.311 7.97608C122.311 5.35906 121.168 4.09853 118.935 4.09853L118.908 4.11161ZM84.2853 12.3421C82.0477 12.3421 80.5342 10.9726 80.5342 7.98044C80.5342 4.98831 82.0477 3.64491 84.2853 3.64491C86.5229 3.64491 88.0276 5.02757 88.0276 7.98044C88.0276 10.9333 86.5272 12.3421 84.2853 12.3421ZM46.1858 12.3421C43.9614 12.3421 42.4435 10.9726 42.4435 7.98044C42.4435 4.98831 43.9614 3.64491 46.1858 3.64491C48.4103 3.64491 49.9282 5.02757 49.9282 7.98044C49.9282 10.9333 48.4321 12.3421 46.1858 12.3421ZM136.037 12.3421C133.804 12.3421 132.295 10.9726 132.295 7.98044C132.295 4.98831 133.804 3.64491 136.037 3.64491C138.27 3.64491 139.757 5.04938 139.757 8.00225C139.757 10.9551 138.266 12.3639 136.019 12.3639L136.037 12.3421ZM16.5088 15.0813H20.683V0.923208H16.5088V15.0813ZM120.104 15.0813H111.576V0.936292H120.644C124.526 0.936292 126.62 3.29161 126.62 8.00225C126.62 13.5634 123.698 15.0726 120.099 15.0726L120.104 15.0813ZM4.99394 15.0726H0.81543V0.936292H10.0884C13.4993 0.936292 14.7205 2.97321 14.7205 5.64693C14.7205 7.98916 13.6563 10.3576 10.2803 10.3576H4.98085L4.99394 15.0726ZM60.1738 15.0726H56.2483V0.936292H62.3547L65.2203 10.2572H65.2596L68.1252 0.936292H74.2316V15.0726H70.306V4.50416H70.2711L66.965 15.0726H63.5192L60.2174 4.50416H60.1825L60.1738 15.0726ZM27.2386 15.0726H22.0569L27.509 7.72746L22.637 0.936292H27.605L29.908 4.73097L32.2153 0.936292H37.1876L32.32 7.72746L37.7721 15.0726H32.5861L29.908 10.7981L27.2386 15.0726ZM98.3823 15.0726H94.3303V0.936292H99.1543L104.96 9.78182H104.999V0.936292H109.051V15.0726H104.428L98.4172 6.1398H98.3823V15.0726ZM136.019 0.500122C131.592 0.500122 127.85 2.14448 127.85 8.00225C127.85 13.86 131.592 15.5 136.019 15.5C140.447 15.5 144.185 13.8644 144.185 8.00225C144.185 2.14012 140.447 0.500122 136.019 0.500122ZM46.1684 0.500122C41.7413 0.500122 37.9946 2.14448 37.9946 8.00225C37.9946 13.86 41.7413 15.5 46.1684 15.5C50.5955 15.5 54.3379 13.8644 54.3379 8.00225C54.3379 2.14012 50.5955 0.500122 46.1684 0.500122ZM84.2678 0.500122C79.832 0.500122 76.094 2.14448 76.094 8.00225C76.094 13.86 79.832 15.5 84.2678 15.5C88.7037 15.5 92.4373 13.8644 92.4373 8.00225C92.4373 2.14012 88.695 0.500122 84.2678 0.500122Z" fill="white"/>
</svg>
