<svg width="204" height="22" viewBox="0 0 204 22" fill="none" xmlns="http://www.w3.org/2000/svg">
<path fill-rule="evenodd" clip-rule="evenodd" d="M12.1042 4.98945H6.8422V10.0055H12.0857C13.727 10.0055 14.4524 9.25556 14.4524 7.50363C14.4524 5.75169 13.727 4.98945 12.0857 4.98945H12.1042ZM167.406 5.33984H162.98V16.3186H167.897C171.266 16.3186 172.2 13.5217 172.2 10.7862C172.2 7.09792 170.59 5.32139 167.442 5.32139L167.406 5.33984ZM118.61 16.9395C115.456 16.9395 113.323 15.0093 113.323 10.7923C113.323 6.57541 115.456 4.68209 118.61 4.68209C121.763 4.68209 123.884 6.63073 123.884 10.7923C123.884 14.954 121.769 16.9395 118.61 16.9395ZM64.9143 16.9395C61.7792 16.9395 59.64 15.0093 59.64 10.7923C59.64 6.57541 61.7792 4.68209 64.9143 4.68209C68.0493 4.68209 70.1885 6.63073 70.1885 10.7923C70.1885 14.954 68.08 16.9395 64.9143 16.9395ZM191.545 16.9395C188.398 16.9395 186.271 15.0093 186.271 10.7923C186.271 6.57541 188.398 4.68209 191.545 4.68209C194.693 4.68209 196.789 6.66147 196.789 10.8231C196.789 14.9847 194.687 16.9702 191.521 16.9702L191.545 16.9395ZM23.0891 20.7999H28.9719V0.846274H23.0891V20.7999ZM169.09 20.7999H157.072V0.864714H169.852C175.323 0.864714 178.274 4.18417 178.274 10.8231C178.274 18.6607 174.155 20.7876 169.084 20.7876L169.09 20.7999ZM6.86064 20.7876H0.97168V0.864714H14.0405C18.8476 0.864714 20.5688 3.73543 20.5688 7.50363C20.5688 10.8046 19.0689 14.1425 14.311 14.1425H6.8422L6.86064 20.7876ZM84.6282 20.7876H79.0957V0.864714H87.7017L91.7404 14.0012H91.7957L95.8344 0.864714H104.44V20.7876H98.908V5.89308H98.8588L94.1992 20.7876H89.343L84.6896 5.89308H84.6404L84.6282 20.7876ZM38.2111 20.7876H30.9083L38.5922 10.4358L31.7258 0.864714H38.7274L41.9731 6.21273L45.225 0.864714H52.2327L45.3725 10.4358L53.0564 20.7876H45.7475L41.9731 14.7634L38.2111 20.7876ZM138.477 20.7876H132.766V0.864714H139.565L147.747 13.3311H147.802V0.864714H153.513V20.7876H146.997L138.526 8.19826H138.477V20.7876ZM191.521 0.25C185.281 0.25 180.007 2.56747 180.007 10.8231C180.007 19.0787 185.281 21.39 191.521 21.39C197.76 21.39 203.028 19.0848 203.028 10.8231C203.028 2.56133 197.76 0.25 191.521 0.25ZM64.8897 0.25C58.6503 0.25 53.3699 2.56747 53.3699 10.8231C53.3699 19.0787 58.6503 21.39 64.8897 21.39C71.129 21.39 76.4033 19.0848 76.4033 10.8231C76.4033 2.56133 71.129 0.25 64.8897 0.25ZM118.585 0.25C112.333 0.25 107.065 2.56747 107.065 10.8231C107.065 19.0787 112.333 21.39 118.585 21.39C124.837 21.39 130.099 19.0848 130.099 10.8231C130.099 2.56133 124.824 0.25 118.585 0.25Z" fill="white"/>
</svg>
