<svg width="47" height="47" viewBox="0 0 47 47" fill="none" xmlns="http://www.w3.org/2000/svg">
<circle cx="23.5" cy="23.5" r="23.5" fill="#6994FF"/>
<g clip-path="url(#clip0)">
<g filter="url(#filter0_d)">
<ellipse cx="25" cy="23" rx="26" ry="24" fill="#6994FF"/>
</g>
<path d="M23.5 34.75C29.7132 34.75 34.75 29.7132 34.75 23.5C34.75 17.2868 29.7132 12.25 23.5 12.25C17.2868 12.25 12.25 17.2868 12.25 23.5C12.25 29.7132 17.2868 34.75 23.5 34.75Z" stroke="#F7F6F2" stroke-width="2" stroke-linecap="round" stroke-linejoin="round"/>
<path d="M12.25 23.5H34.75" stroke="#F7F6F2" stroke-width="2" stroke-linecap="round" stroke-linejoin="round"/>
<path d="M23.5 12.25C26.3139 15.3306 27.9131 19.3285 28 23.5C27.9131 27.6715 26.3139 31.6694 23.5 34.75C20.6861 31.6694 19.0869 27.6715 19 23.5C19.0869 19.3285 20.6861 15.3306 23.5 12.25V12.25Z" stroke="#F7F6F2" stroke-width="2" stroke-linecap="round" stroke-linejoin="round"/>
</g>
<defs>
<filter id="filter0_d" x="-21" y="-21" width="92" height="88" filterUnits="userSpaceOnUse" color-interpolation-filters="sRGB">
<feFlood flood-opacity="0" result="BackgroundImageFix"/>
<feColorMatrix in="SourceAlpha" type="matrix" values="0 0 0 0 0 0 0 0 0 0 0 0 0 0 0 0 0 0 127 0"/>
<feMorphology radius="5" operator="dilate" in="SourceAlpha" result="effect1_dropShadow"/>
<feOffset/>
<feGaussianBlur stdDeviation="7.5"/>
<feColorMatrix type="matrix" values="0 0 0 0 0.337255 0 0 0 0 0.501961 0 0 0 0 0.913725 0 0 0 0.3 0"/>
<feBlend mode="normal" in2="BackgroundImageFix" result="effect1_dropShadow"/>
<feBlend mode="normal" in="SourceGraphic" in2="effect1_dropShadow" result="shape"/>
</filter>
<clipPath id="clip0">
<rect width="27" height="27" fill="white" transform="translate(10 10)"/>
</clipPath>
</defs>
</svg>
