<?xml version="1.0" encoding="utf-8"?>
<!-- Generator: Adobe Illustrator 23.0.3, SVG Export Plug-In . SVG Version: 6.00 Build 0)  -->
<svg version="1.1" id="b1697bb3-7d56-4b4d-86e2-02331527eb0b"
	 xmlns="http://www.w3.org/2000/svg" xmlns:xlink="http://www.w3.org/1999/xlink" x="0px" y="0px" viewBox="0 0 17.7 17"
	 style="enable-background:new 0 0 17.7 17;" xml:space="preserve">
<style type="text/css">
	.st0{fill-rule:evenodd;clip-rule:evenodd;}
</style>
<title>Website_jobs_office_logos-gold</title>
<path fill="#fff" class="st0" d="M16.7,5.1c0.5,1.1,0.7,2.2,0.7,3.3c0,4.7-3.9,8.6-8.7,8.5l0,0C4,17.1,0.1,13.3,0,8.5l0,0C0.1,3.7,4-0.1,8.7,0
	c2.4,0,4.6,0.9,6.3,2.6L12.2,4l0.4,1l-0.1,0.3l0.1,1.3v0.8l-0.5,1.7L12,9.9l-0.5,0.3l-0.3,0.4L11,11.4l-0.5,0.2L10,11.8v-0.3
	l0.1-0.4l0.3-0.4l0.2-0.3l-0.1-0.3V9.3l-0.3-0.1L9.8,8.9H9.6L9.1,8.7L8.8,9H8.4L8,9.8l-0.2,0.6l0.4,0.5l0.1,0.4v0.9l-0.8,0.6
	l-1.2,0.4l-0.9,1L5,14.4l-0.3,0.4l-0.4-0.5l-0.7-1.6L4,12.1v-0.2l0.1-0.4l0.2-0.3L4,11H3.7v-0.3l0.5-1.2L4.1,9.2L3.8,9.4l-0.5,1.2
	H3.1L2.9,11l-0.2,0.4l-0.2,0.4v0.5l0.3,0.9l0.2,1L3.1,15c0,0,2.6,2.7,7.5,1.8l0.9-0.2c0.4-0.9,0.7-1.9,0.8-2.9l0.1-0.9l0.6-0.9v-0.2
	l0.2-0.3V11l0.1-0.5l0.2-0.2V9.9l0.3-0.7l-0.1-0.4l-0.1-1.1L13.7,7L14,6.5L16.7,5.1c-0.4-0.9-1-1.8-1.7-2.5L16.3,2l1.4,2.6L16.7,5.1
	z"/>
</svg>
