<?xml version="1.0" encoding="utf-8"?>
<!-- Generator: Adobe Illustrator 23.0.3, SVG Export Plug-In . SVG Version: 6.00 Build 0)  -->
<svg version="1.1" id="Layer_1" xmlns="http://www.w3.org/2000/svg" xmlns:xlink="http://www.w3.org/1999/xlink" x="0px" y="0px"
	 viewBox="0 0 17.4 17" style="enable-background:new 0 0 17.4 17;" xml:space="preserve">
<title>Website_jobs_office_logos-gold</title>
<g>
	<path fill="#fff" d="M8.7,0C4-0.1,0.1,3.7,0,8.5l0,0c0.1,4.7,4,8.6,8.7,8.5l0,0c4.7,0,8.6-3.8,8.7-8.5C17.3,3.7,13.4-0.1,8.7,0z M15.3,8.8
		c-0.1,0.1-0.2,0.1-0.2,0.2c0,0.1-0.2,0-0.3-0.1c-0.1,0-0.2,0-0.2,0.1l0,0c-0.3,0-0.6-0.1-0.9-0.2c-0.1,0-0.1,0.1-0.2,0.1
		c-0.1-0.1-0.2-0.1-0.4-0.1s-0.3,0-0.3-0.2s-0.1,0-0.2,0.1h-0.3h-0.1c0.1,0.1,0.2,0.2,0.3,0.3c0.3,0.2,0.6,0.5,0.9,0.7
		c0.2,0.2,0.4,0.4,0.7,0.5l0.1,0.1c-0.1,0-0.1,0.1-0.1,0.2c-0.2,0.1-0.3,0.1-0.5,0.1s0-0.1-0.1-0.1c-0.1-0.1-0.2-0.1-0.3,0
		c-0.3-0.1-0.5-0.3-0.8-0.4c-0.1,0,0-0.1,0-0.2c0,0-0.1,0-0.2,0s0-0.1,0-0.1h-0.1c-0.1,0-0.1,0-0.2-0.1c0,0-0.1,0-0.2-0.1l-0.1-0.1
		c-0.1,0-0.1,0.1-0.1,0c-0.1-0.1-0.1-0.2-0.2-0.2C11.1,9.5,11,9.7,11,9.9c0.1,0.2,0,0.5,0.2,0.7c0,0.1-0.1,0.1-0.2,0.2
		c0.1,0.1,0.3,0.2,0.5,0.3c0.1-0.1,0.1-0.4,0.3-0.5s0.2,0,0.2-0.1c0.1-0.1,0.1,0.1,0.2,0.2c-0.1,0.2-0.2,0.3-0.4,0.4
		c0.2,0,0.3,0,0.4,0l0.2,0.2c0,0,0,0.1,0,0.2c-0.2,0.2-0.4,0-0.6,0c0.1,0.1,0.3,0.2,0.3,0.5c-0.1,0,0,0.2-0.1,0.2
		c0.1,0.1,0,0.2,0,0.3c-0.1-0.1,0-0.2-0.1-0.3c-0.2-0.1-0.3-0.2-0.3-0.4c0-0.1-0.1-0.2-0.2-0.2c0,0.1,0,0.1,0,0.2l-0.1,0.3
		c-0.1,0.1-0.1,0.2-0.2,0.2c-0.1,0,0,0.2-0.1,0.3s-0.1-0.1-0.2-0.1c0.1-0.1,0-0.3-0.1-0.4c0.1,0,0.1-0.1,0.1-0.2
		c0-0.1,0.1-0.1,0.1-0.1c0-0.1,0-0.2,0.1-0.3c0-0.1-0.1,0-0.2-0.1c-0.2-0.1-0.3-0.2-0.4-0.4c-0.1,0-0.1,0.1-0.2,0.1
		c-0.1,0-0.1-0.2-0.2-0.3s0-0.1,0-0.1c-0.1-0.2-0.2-0.4-0.3-0.6c-0.1,0-0.2,0-0.2,0c-0.1,0.1-0.2,0.1-0.2,0.2
		c0.2,0.2,0.3,0.5,0.5,0.8s0.4,0.6,0.6,1c0.1,0.2,0,0.4-0.1,0.6c0,0.1-0.1,0.1-0.1,0.2h-0.1c0-0.1,0-0.1,0.1-0.3
		c0-0.1-0.1-0.1-0.2-0.1c-0.1,0.1,0,0.1,0,0.2c-0.1,0.2-0.3,0.3-0.5,0.4c0-0.2,0.2-0.5,0.2-0.7c0.1,0,0.1,0,0.1,0v-0.1
		c0,0,0.1-0.1,0-0.2c-0.1,0.3-0.3,0.5-0.5,0.6c-0.1-0.2,0-0.3,0-0.4c0-0.1,0-0.3,0-0.4h0.1c0,0,0,0,0-0.1c0,0-0.1,0-0.2-0.1
		c0-0.1-0.1-0.3-0.3-0.3c-0.1,0.2-0.2,0.3-0.2,0.5s0.1,0.4,0.2,0.6C9,12.7,9.1,12.8,9.1,13c0.1,0.2,0.1,0.5,0.1,0.7
		c0,0.1,0,0.2,0.1,0.3h0.4c0,0.1,0,0.2-0.1,0.2l0,0c-0.1,0-0.2,0-0.3-0.1c0-0.1,0-0.3-0.2-0.4c-0.1,0.2-0.2,0.4-0.4,0.5
		c-0.1,0-0.2,0-0.2-0.1l0,0c0-0.1,0.1-0.1,0.1-0.2c0-0.1-0.1,0-0.2,0c-0.1-0.2-0.1-0.3-0.2-0.5C8.1,13.7,8,13.9,8,14s0,0.3-0.1,0.4
		c-0.2-0.1-0.3-0.3-0.3-0.6c-0.1-0.4,0.1-0.7,0.3-1c0-0.2,0.1-0.3,0.2-0.5c0-0.1,0-0.1,0-0.2c0-0.2,0-0.4-0.2-0.6
		c-0.1,0-0.1,0.1-0.2,0.1c-0.1,0.4-0.1,0.8,0.1,1.2c-0.2-0.1-0.3-0.2-0.4-0.4c-0.1,0-0.1,0.1,0,0.1s0.1,0.4,0.2,0.6
		c-0.2-0.2-0.4-0.4-0.6-0.6c0,0.1,0,0.2,0,0.2v0.1l0,0l0,0c0-0.1-0.1-0.2-0.1-0.2c-0.1-0.1-0.1-0.3-0.1-0.5V12
		C6.9,11.9,7,11.7,7,11.5s0.2-0.3,0.3-0.5c0.1-0.2,0-0.1,0-0.2c0.2-0.2,0.2-0.6,0.3-0.8c0,0-0.1,0-0.2,0c-0.2,0.1-0.3,0.3-0.3,0.6
		C7.1,10.7,7,10.8,7,11c0,0,0,0.1-0.1,0.1S6.8,11,6.7,11c-0.1,0.2-0.4,0.4-0.6,0.5c0.1,0.2,0.2,0.4,0.3,0.6c0,0.1,0,0.1-0.1,0.1
		c0,0.1,0,0.2,0,0.2c0,0.1-0.1,0.2-0.2,0.2s0-0.2,0-0.3c-0.3-0.1-0.3-0.3-0.3-0.6c-0.1,0-0.1,0.1-0.1,0.1v0.1
		c-0.1,0.2-0.1,0.2-0.3,0.3c-0.2,0.1,0,0.2-0.1,0.3H5.2c-0.1-0.2,0-0.4-0.1-0.5c0-0.1,0-0.2,0.1-0.2c0-0.1,0.1-0.2,0.2-0.3
		c-0.1,0-0.1,0-0.2,0s-0.2,0.1-0.3,0s0-0.1-0.1-0.2c-0.1,0-0.1,0.2-0.2,0.1l-0.1-0.1c0-0.2,0.2-0.2,0.3-0.2S4.9,11,4.9,11
		c0.1,0,0.3,0,0.4,0c-0.1,0-0.3-0.1-0.4-0.2c0-0.1,0-0.1,0-0.1c-0.1,0-0.2-0.1-0.2-0.1c-0.1,0-0.2,0-0.2,0s0-0.1,0-0.2
		c0.3,0,0.6,0,0.8,0.1c0.2,0.1,0.1,0.3,0.3,0.5c0.1,0.1,0.4-0.2,0.5-0.3c0-0.1-0.2-0.1-0.1-0.2c0-0.1,0.1,0,0.1-0.1s0-0.1,0-0.1
		c0.1-0.2,0.2-0.4,0.1-0.7C6.2,9.5,6,9.5,6,9.4s-0.2,0-0.2-0.1c0,0.1,0,0.1,0,0.1S5.6,9.5,5.6,9.6s-0.1,0-0.1,0
		c-0.1,0-0.1,0.2-0.2,0.2C5.2,10,5.1,10.1,5,10.1c-0.3,0.2-0.5,0.3-0.8,0.4c-0.2,0.1-0.5,0.1-0.8,0c-0.1,0-0.2-0.1-0.2-0.2
		c0.1-0.1,0.2-0.2,0.3-0.2l0.9-0.7c0.1,0,0.1-0.1,0.1-0.1c0-0.1,0.2-0.2,0.2-0.3s0-0.1-0.1-0.2L4.4,8.9C4.4,9,4.4,9,4.5,9
		c0,0.1,0,0.3-0.1,0.3c-0.2,0,0-0.2-0.1-0.3c-0.2,0.1,0,0.4-0.1,0.6C4,9.5,4,9.4,4,9.3C4,9.2,4,9.1,4,9S3.9,9,3.8,9c0,0-0.1,0-0.2,0
		C3.5,9,3.5,9.1,3.5,9.1c-0.1,0,0-0.2,0-0.2H3.3C3.2,9,3.3,9,3.3,9C3.1,9.1,2.9,9.1,2.8,9C2.7,9,2.6,9,2.5,9C2.3,9,2.1,8.9,1.9,8.8
		c-0.1,0-0.2-0.2-0.2-0.4c0.2-0.2,0.5-0.1,0.6-0.2s0.1,0.1,0.2,0.1C2.6,8.1,2.8,8.2,3,8.1S3.4,8,3.6,7.9S3.9,8,4,8s0.2,0,0.3-0.1
		c0-0.1-0.1-0.1-0.2-0.1C3.8,7.6,3.5,7.6,3.2,7.5S2.8,7.4,2.5,7.3C2.4,7.2,2.2,7,2.2,6.8c0-0.1,0-0.1,0.1-0.1l0.4,0.1
		c0.1,0,0.2,0,0.3,0s0.1,0,0.2,0c0.2,0,0.5,0,0.8,0c0.1,0,0.2,0,0.2,0s0.1,0,0.1-0.1S4.2,6.5,4.1,6.4C4,6.2,3.8,6,3.6,5.7
		C3.4,5.5,3.4,5.2,3.5,4.9c0-0.1,0.1-0.1,0.2-0.2C4,5.2,4.4,5.6,4.9,6c0,0,0.1,0,0.2,0C5,5.6,5,5.2,5,4.8V4.7l0.1-0.1
		c0-0.1-0.1,0-0.1,0s0-0.1,0-0.2c0-0.4,0-0.7,0-1C5,3,5.3,2.7,5.6,2.6c0.2,0,0,0.2,0.2,0.3V3l0.1,0.1c0,0.3,0.1,0.7,0.2,1
		c0,0.2,0.1,0.4,0.1,0.6c0,0.1,0.1,0.2,0.2,0.3c0.2,0.2,0.2,0.5,0.2,0.8c0.1,0.1,0,0.2,0.1,0.3c0.1,0,0.2,0.1,0.3,0.2
		C6.9,6.4,7,6.5,7.1,6.5l0.4,0.3c0.1,0.1,0.3,0,0.4-0.1c0,0,0.1-0.1,0.1-0.2S8.2,6.2,8,6C7.9,6,7.8,6,7.6,6C7.5,6,7.4,6.1,7.3,6
		c0-0.1,0.1-0.2,0.2-0.3c0,0,0-0.1,0.1-0.1c0.1-0.1,0.3,0,0.3-0.2C7.8,5.1,7.6,4.9,7.3,4.7C7.2,4.8,7.1,4.8,7,4.9
		C6.9,4.9,6.8,5,6.8,5.1v0.1H6.7c0-0.1,0-0.1,0-0.2L6.6,4.9c-0.1-0.1-0.1-0.2,0-0.3l0,0l0.3-0.3c0.2,0,0.4,0,0.5-0.2
		c0.1,0,0,0.1,0.1,0.1s0.3,0,0.5-0.1h0.1c0,0,0.1,0,0.2,0C8.6,4,9,4.1,9.2,4.3c0.1,0,0.2,0.1,0.3,0.1s0.3-0.1,0.4-0.2
		c0.2,0.1,0.2,0.2-0.1,0.5C9.9,4.9,10,4.9,10,5s0,0.1-0.1,0.1c-0.3,0-0.3,0-0.4,0.3c0,0.1,0.1,0.3,0.2,0.4C9.9,5.9,10,6.1,10,6.3
		v0.1c0,0-0.4-0.2-0.6-0.2s0,0.3,0,0.4c0.1,0.1,0.2,0.2,0.2,0.3V7c0,0,0.1,0,0.2-0.1c0.1,0,0.2,0,0.3-0.1h0.2c0.1,0,0.1,0,0.2-0.1
		c0-0.1-0.1-0.1,0-0.2s0.1,0.1,0.1,0.1c0.1,0,0.1,0,0.1-0.1s-0.1-0.1-0.1-0.2c-0.1-0.1,0.2-0.1,0.2-0.2s0.1,0,0.1,0S11,5.9,11,5.7
		c0-0.2,0-0.4,0.1-0.6c0.1-0.1,0.1-0.3,0.2-0.4c0.1-0.1,0-0.1,0-0.1s-0.1-0.1-0.1-0.2c0.1-0.1,0.1,0,0.1,0c0-0.2,0.1-0.3,0.1-0.4
		s-0.1-0.1-0.1-0.2c0-0.1,0-0.2,0-0.2c0.1,0,0,0.1,0.1,0.1c0-0.1,0-0.2,0-0.3c0-0.2,0-0.4,0-0.6c0-0.1,0.1-0.1,0.1-0.2
		c0.1,0,0.2,0.1,0.3,0.2c0.1,0.1,0.2,0.3,0.3,0.5c0.1,0.4,0.1,0.8,0.1,1.2c0,0.3-0.1,0.7-0.1,1c0,0.1-0.1,0.2-0.1,0.3
		c0,0.1,0,0.1,0,0.2c0.3-0.2,0.5-0.4,0.7-0.6c0.3-0.2,0.4-0.5,0.7-0.7C13.8,4.9,14,5.1,14,5.4c0,0.1-0.1,0.2-0.2,0.3
		c-0.2,0.3-0.4,0.5-0.6,0.8l-0.1,0.2c0,0.1,0.1,0.1,0.1,0.1c0.3,0,0.6,0,0.9-0.1s0.6-0.1,0.9-0.2h0.1c0.1,0.1,0.1,0.2,0.1,0.3
		c0,0.1,0,0.2-0.2,0.2s0-0.1,0-0.2s-0.2,0-0.3,0.1s0.1,0,0.1,0L14.9,7c0,0.1-0.1,0.1-0.2,0.1C14.6,7,14.5,7,14.4,7
		c0,0.1,0,0.2,0,0.2c0,0.1-0.1-0.1-0.2-0.2h-0.1L14,7.3c0,0,0,0.1,0,0.2l-0.2,0.1c-0.1,0-0.2,0-0.4,0c0,0.1-0.2,0.1-0.3,0.2
		s0.1,0.1,0.2,0.1S13.5,8,13.7,8c0.1-0.1,0.2,0,0.3,0c0.2,0.1,0.3,0.1,0.5,0.1l1,0.2c0.1,0,0.1,0.1,0.1,0.1c0,0.1,0,0.2-0.1,0.3
		C15.5,8.8,15.4,8.8,15.3,8.8z"/>
</g>
</svg>
