<?xml version="1.0" encoding="utf-8"?>
<!-- Generator: Adobe Illustrator 23.0.1, SVG Export Plug-In . SVG Version: 6.00 Build 0)  -->
<svg version="1.1" id="Layer_1" xmlns="http://www.w3.org/2000/svg" xmlns:xlink="http://www.w3.org/1999/xlink" x="0px" y="0px"
	 viewBox="0 0 43.46 42.39" style="enable-background:new 0 0 43.46 42.39;" xml:space="preserve">
<style type="text/css">
	.st0{display:none;}
	.st1{display:inline;}
	.st2{display:inline;clip-path:url(#SVGID_2_);enable-background:new    ;}
	.st3{fill-rule:evenodd;clip-rule:evenodd;}
</style>
<g>
	<g class="st0">
		<defs>
			<rect id="SVGID_1_" x="-469.92" y="31.02" width="8.46" height="13.93"/>
		</defs>
		<clipPath id="SVGID_2_" class="st1">
			<use xlink:href="#SVGID_1_"  style="overflow:visible;"/>
		</clipPath>
		<g class="st2">
			<g>
				<defs>
					<rect id="SVGID_3_" x="-469.92" y="31.02" width="8.46" height="13.93"/>
				</defs>
				<clipPath id="SVGID_4_">
					<use xlink:href="#SVGID_3_"  style="overflow:visible;"/>
				</clipPath>
			</g>
		</g>
	</g>
	<g>
		<path fill="#fff" class="st3" d="M21.73,0C9.73,0,0,9.51,0,21.21c0,11.69,9.73,21.18,21.73,21.18c11.99,0,21.73-9.5,21.73-21.18
			C43.46,9.51,33.72,0,21.73,0z M18.96,35.54c-2.88-1.46-5.45-3.97-6.21-6.07c-0.57-1.6-0.62-3.57-0.13-5.25
			c0.18-0.66,1.68-3.47,3.34-6.31C21.05,9.2,22.22,6.23,21.36,4c-0.2-0.53-0.29-0.9-0.19-0.84c0.37,0.23,2.75,4.06,3.51,5.64
			c1.96,4.06,1.69,5.41-2.09,10.87c-3.48,5.04-4.46,7.3-4.32,10.09c0.08,2.06,0.64,3.41,2.17,5.33c0.55,0.7,0.94,1.34,0.88,1.42
			C21.23,36.6,20.18,36.16,18.96,35.54z M22.34,32.58c-0.18,0-1.1-1.44-1.36-2.16c-0.68-1.86-0.04-3.59,2.95-7.9
			c0.85-1.24,1.81-2.72,2.12-3.28c0.82-1.49,1.38-3.62,1.25-4.77l-0.12-0.97l0.59,1.18c0.53,1.01,0.61,1.45,0.61,3.28
			c0,1.88-0.06,2.28-0.69,3.64c-0.39,0.84-1.51,2.61-2.5,3.97c-2.23,3.07-2.95,4.56-2.83,5.98C22.41,32.11,22.4,32.58,22.34,32.58z
			 M31.65,27.17c-0.31,0.64-1.74,2.36-3.62,4.35c-1.72,1.81-3.19,3.52-3.28,3.82c-0.09,0.29-0.27,0.52-0.4,0.52
			c-0.16,0-0.2-0.55-0.12-1.63c0.14-2.16,1.04-3.99,3.15-6.45c2.42-2.81,3.57-5.75,3.36-8.44l-0.1-1.28l0.55,0.83
			C32.79,21.32,32.96,24.36,31.65,27.17z"/>
	</g>
</g>
</svg>
