<?xml version="1.0" encoding="utf-8"?>
<!-- Generator: Adobe Illustrator 23.0.3, SVG Export Plug-In . SVG Version: 6.00 Build 0)  -->
<svg version="1.1" id="Layer_1" xmlns="http://www.w3.org/2000/svg" xmlns:xlink="http://www.w3.org/1999/xlink" x="0px" y="0px"
	 viewBox="0 0 635.2 250.1" style="enable-background:new 0 0 635.2 250.1;" xml:space="preserve">
<style type="text/css">
	.st0{fill-rule:evenodd;clip-rule:evenodd;}
</style>
<path class="st0" d="M297.3,77.3l17.2,27.6l17.1-27.6L297.3,77.3z M215,98.6V125h30.8c6.3-0.1,10.8-5.2,10.5-13.4
	c-0.2-7.4-4.5-13.1-12.2-13L215,98.6z M393.3,97.9c18.2,0.3,27,11.4,27.8,31.8c-1.4,23-12.1,32-29.7,31
	c-17.4-0.4-25.5-11.5-26.2-31.2C365.7,110.9,373.7,99.1,393.3,97.9L393.3,97.9z M294.6,181.7l19.9-30.4l19.7,30.5L294.6,181.7z
	 M214.7,181.9h-31.8l0.2-104.7h76.3l29.3,40.2c-3.2,18.8-13,28.6-29.2,29.4l-44.9,0.1L214.7,181.9z M333.7,127.3L370,76.9
	c53.1-5.9,73.1,6.3,81.8,34c2.2,13.7,2.4,27.4-0.8,41.1c-13.4,28-33.6,34-76,29.6L333.7,127.3z"/>
</svg>
