<svg id="Layer_1" data-name="Layer 1" xmlns="http://www.w3.org/2000/svg" viewBox="0 0 497.6 124.01"><defs><style>.cls-1,.cls-13,.cls-16,.cls-19,.cls-2,.cls-20,.cls-24,.cls-3,.cls-9{fill:#231f20;}.cls-1{fill-rule:evenodd;}.cls-13,.cls-16,.cls-19,.cls-2,.cls-20,.cls-24,.cls-3,.cls-9{font-size:6.4px;font-family:HelveticaNeue-Thin, Helvetica Neue;font-weight:200;}.cls-2{letter-spacing:0.11em;}.cls-3{letter-spacing:0.06em;}.cls-4{letter-spacing:0.08em;}.cls-24,.cls-5{letter-spacing:0.09em;}.cls-6{letter-spacing:0.06em;}.cls-7,.cls-9{letter-spacing:0.07em;}.cls-8{letter-spacing:0.1em;}.cls-10{letter-spacing:0.04em;}.cls-11{letter-spacing:0.05em;}.cls-12{letter-spacing:0.05em;}.cls-13{letter-spacing:0.05em;}.cls-14{letter-spacing:0.12em;}.cls-15{letter-spacing:0.03em;}.cls-16{letter-spacing:0.07em;}.cls-17{letter-spacing:0.03em;}.cls-18{letter-spacing:0.07em;}.cls-19{letter-spacing:0.1em;}.cls-20{letter-spacing:-0.01em;}.cls-21{letter-spacing:0.08em;}.cls-22{letter-spacing:0.03em;}.cls-23{letter-spacing:0.06em;}</style></defs><title>pxo-logo-full</title><path class="cls-1" d="M160.56,67.65H152v8.16h8.53c2.67,0,3.85-1.22,3.85-4.07s-1.18-4.09-3.85-4.09m252.67.57H406V86.08h8c5.48,0,7-4.55,7-9,0-6-2.62-8.89-7.74-8.89M333.82,87.09c-5.13,0-8.6-3.14-8.6-10s3.47-9.94,8.6-9.94,8.58,3.17,8.58,9.94-3.44,10-8.58,10m-87.35,0c-5.1,0-8.58-3.14-8.58-10s3.48-9.94,8.58-9.94,8.58,3.17,8.58,9.94-3.43,10-8.58,10m206,0c-5.12,0-8.58-3.14-8.58-10s3.46-9.94,8.58-9.94S461,70.37,461,77.14s-3.42,10-8.57,10m-274,6.23H188V60.91h-9.57Zm237.51,0H396.39V60.94h20.79c8.9,0,13.7,5.4,13.7,16.2,0,12.75-6.7,16.21-14.95,16.21m-263.9,0h-9.58V60.94h21.26c7.82,0,10.62,4.67,10.62,10.8,0,5.37-2.44,10.8-10.18,10.8H152Zm126.51,0h-9V60.94h14l6.57,21.37h.09l6.57-21.37h14V93.35h-9V69.12h-.08l-7.58,24.23h-7.9l-7.57-24.23h-.08Zm-75.51,0H191.15l12.5-16.84L192.48,60.94h11.39l5.28,8.7,5.29-8.7h11.4L214.68,76.51l12.5,16.84H215.29l-6.14-9.8Zm163.11,0h-9.29V60.94h11.06l13.31,20.28h.09V60.94h9.29V93.35H380L366.22,72.87h-.08Zm86.29-33.41c-10.15,0-18.73,3.77-18.73,17.2s8.58,17.19,18.73,17.19,18.72-3.75,18.72-17.19-8.57-17.2-18.72-17.2m-206,0c-10.15,0-18.74,3.77-18.74,17.2s8.59,17.19,18.74,17.19,18.73-3.75,18.73-17.19-8.58-17.2-18.73-17.2m87.35,0c-10.17,0-18.74,3.77-18.74,17.2s8.57,17.19,18.74,17.19,18.73-3.75,18.73-17.19-8.58-17.2-18.73-17.2" transform="translate(-58 -59.94)"/><path class="cls-1" d="M474.66,135.94l-2.42-.59,1.86,1.45Zm-198.42,3c.35,0,.7.14,1.06.17-.06-.17-.1-.32-.15-.49.38-.3.76-.64,1.14-1v0l-.47-.14c.06-.29.11-.54.18-.82-.23.06-.43.14-.64.21a4,4,0,0,1-.21-.46l-.44.53h0c0-.4.09-.79.12-1.2a3.64,3.64,0,0,0-.47.28l-.53-.85c-.11.3-.23.61-.34.92l-.51-.22h0q.17.6.33,1.17h0l-.53-.42a3.81,3.81,0,0,0-.13.45l-.67-.11c.12.26.22.53.33.79l-.46.22c.47.27.9.51,1.35.78,0,.17-.05.33-.08.5.35-.11.66-.2,1-.32v.61a.59.59,0,0,0,.23,0c0-.21,0-.42-.05-.63m5.06,9.41c.11.36.33,1,.33,1,0-.23,0-.43,0-.65.06-.66.11-1.32.14-2,0-.49.07-.95.1-1.41s.09-1.15.12-1.69a.58.58,0,0,0-.07-.37,1,1,0,0,1-.17-.32.37.37,0,0,1,0-.21c0-.09-.19-.38-.23-.47a1.74,1.74,0,0,0-.2-.38c-.12-.1-.33-.48-.38-.51a8.74,8.74,0,0,1-1-.86s-.2-.31-.27-.43a.71.71,0,0,1-.14-.29,1.09,1.09,0,0,0-.14-.29.15.15,0,0,0-.15-.07s0,.82.08,1.2a1,1,0,0,0,.19.53,1,1,0,0,1,.12.25,7,7,0,0,0,.26,1c.15.44.25.89.43,1.33.06.17.14.33.19.49.19.6.3,1.2.44,1.79a7.73,7.73,0,0,1,.2,1.17,5.09,5.09,0,0,0,.18,1.16M331,141a7.71,7.71,0,0,0-1.74,1.58,6,6,0,0,0-1,2,5.23,5.23,0,0,0-.19,2.2,4.87,4.87,0,0,0,.84,2.2,4.22,4.22,0,0,0,1.65,1.56,3.54,3.54,0,0,0,1.87.4,4.93,4.93,0,0,0,2-.51,12.61,12.61,0,0,0,1.93-1.06A9.44,9.44,0,0,0,339,146.6c.72-1.11,1.41-2.19,2-3.29a8.53,8.53,0,0,0-4.54-3.74c-1.62-.43-3.46,0-5.54,1.42m11.92,7.67a6.13,6.13,0,0,0,3.83,1.83,6.44,6.44,0,0,0,4.09-1.23,7,7,0,0,0,2.87-3.44,4.28,4.28,0,0,0-3.63-5.61,6.25,6.25,0,0,0-4.1,1.19,8.88,8.88,0,0,0-2.38,2.26c-.62.84-1.19,1.68-1.72,2.53s-1.11,1.7-1.68,2.52a8.4,8.4,0,0,1-2.27,2.16,6.71,6.71,0,0,1-5.51,1,8.36,8.36,0,0,1-4.72-3.43,6.83,6.83,0,0,1-1-2.39,6.37,6.37,0,0,1,0-2.46,5.93,5.93,0,0,1,.91-2.27,6.68,6.68,0,0,1,1.84-1.83,6.88,6.88,0,0,1,3.26-1.18,8.35,8.35,0,0,1,3.32.41,10.23,10.23,0,0,1,3,1.66,11.47,11.47,0,0,1,2.4,2.57,19.28,19.28,0,0,1,1.25-1.58,8,8,0,0,1,1.52-1.32,6.06,6.06,0,0,1,2.67-1,6.92,6.92,0,0,1,2.72.2,7.51,7.51,0,0,1,2.5,1.24,8.06,8.06,0,0,1,1.94,2.05,5.52,5.52,0,0,1,1,4.47,6,6,0,0,1-2.76,3.67,5.75,5.75,0,0,1-2.47,1,6.66,6.66,0,0,1-2.55-.16,8.89,8.89,0,0,1-2.45-1,11,11,0,0,1-2.15-1.5Zm-63,5.3a.3.3,0,0,0,0-.13c-.12-.75-.25-1.48-.36-2.22a2.17,2.17,0,0,0-.27-.8.73.73,0,0,1-.13-.28,3.29,3.29,0,0,0-.23-.46,2.51,2.51,0,0,1-.24-.46c-.06-.19-.12-.41-.17-.63a.2.2,0,0,1,0-.11.41.41,0,0,0-.05-.21c-.05-.08-.1-.17-.16-.25-.5-.85-1-1.69-1.51-2.53l-.22-.35-.38.14s-.06,0-.07.06a3.72,3.72,0,0,0-.6.9,13.94,13.94,0,0,1-.66,1.41,5,5,0,0,1-.25.46,4.05,4.05,0,0,1-.35.53.33.33,0,0,0-.08.18,3.12,3.12,0,0,1-.09.8c-.11.41-.26.84-.4,1.24,0,.14-.08.3-.13.43.53-.09,1-.19,1.56-.3,0,.11.08.2.11.29l.31.88c.09.25.17.49.26.73a.38.38,0,0,0,.34.25,1.83,1.83,0,0,0,.66,0c.12,0,.18-.1.23-.2s.12-.36.18-.53.06-.28.1-.41.15-.48.22-.72a.32.32,0,0,1,.33-.29c.23,0,.47.08.7.09a3.74,3.74,0,0,1,.42.11l.35.06.09,2.15a2.86,2.86,0,0,0,.48.2m-6.46-1.65h0V154l-.42.14c.16-.62.29-1.23.4-1.84ZM406.86,155s.06-.07,0,0-.08.11,0,0c.26-.29,0,0,0,0l.06-.07s0,0,0,0m-5.9-1.2a1.55,1.55,0,0,1-1.65,1.35c-1,0-1.65-.25-1.5-1.06l2.08-9.5,1.85,5.68ZM143.45,140.2H131.78l9.44,6.86-3.61,11.1,9.45-6.86,9.45,6.86-3.61-11.1,9.45-6.86H150.68l-3.62-11.1ZM269,159.75l.24-.35a10.65,10.65,0,0,1,1-1.16c.29-.25.57-.51.88-.75a10.19,10.19,0,0,1,1.17-.76,10,10,0,0,1,1.1-.5,7.14,7.14,0,0,1,1.36-.42,8.78,8.78,0,0,1,1.9-.21c.25,0,.51,0,.75,0a6.47,6.47,0,0,1,.65.07,7.06,7.06,0,0,1,1.21.27l.56.15c.32.14.65.28,1,.44a10.39,10.39,0,0,1,1.27.76c.26.18.5.38.75.59a12.4,12.4,0,0,1,1,1c.18.23.36.49.53.72a.12.12,0,0,0,.14.09H288a.21.21,0,0,0,.13-.05c.19-.15.4-.3.59-.46s.12-.08.16-.14a3.54,3.54,0,0,0-.88-1.49l-2.06.7c-.22-.28-.42-.56-.63-.86.42-.63.85-1.25,1.28-1.87l-1.26-1.18-.05,0c-.14.11-.26.22-.4.31l-.7.52-.69.53-.86-.62c.21-.74.42-1.47.62-2.2-.23-.11-.43-.19-.64-.31a.1.1,0,0,1,0-.09l.06-.69c0-.47.06-.93.11-1.42s.1-1.25.15-1.86.11-1.41.17-2.12.09-1.24.15-1.86c0-.35.05-.67.08-1a.37.37,0,0,1,.12-.26l.41-.4a6.53,6.53,0,0,0-.21-.79.74.74,0,0,1,0-.12,1.42,1.42,0,0,1,0-.46c.07-.93.14-1.85.2-2.78s.12-1.64.17-2.45.1-1.46.16-2.19.09-1.68.21-2.51a4.36,4.36,0,0,1,.15-.77.54.54,0,0,0,0-.45.65.65,0,0,1-.05-.2c-.05-.24-.09-.47-.13-.72s-.08-.47-.14-.72-.13-.57-.21-.85a1.73,1.73,0,0,1-.07-.6v-.09c-.05,0-.07,0-.11,0a3.69,3.69,0,0,1,0,.37c-.15.36-.28.71-.41,1.07s-.28.76-.41,1.17c-.06.18-.11.35-.19.55a.76.76,0,0,0-.07.52,2.28,2.28,0,0,1,0,.45c0,.69-.05,1.38-.1,2.07-.08.94-.15,1.88-.22,2.81,0,.58-.09,1.17-.13,1.72s-.11,1.29-.17,1.94c0,.23,0,.47,0,.72a.14.14,0,0,1,0-.09c-.07-.24-.15-.47-.23-.7-.11-.39-.26-.75-.37-1.14a.3.3,0,0,1,0-.23.64.64,0,0,0,.1-.22s0,0,0,0a3.18,3.18,0,0,1-.54-.67.23.23,0,0,0-.11-.07l-.59-.14-.07-.06a2.72,2.72,0,0,1-.46-.68,3.61,3.61,0,0,1-.21-.71,1.62,1.62,0,0,0-.25-.62.64.64,0,0,0-.11-.16,1.32,1.32,0,0,0-.51-.33l-.23-.13c-.15-.06-.3-.17-.46-.23s-.38-.12-.57-.2a.2.2,0,0,0-.11,0,2.13,2.13,0,0,1-.25,0,.42.42,0,0,1-.44-.12l-.09-.06a.14.14,0,0,0-.11,0,.26.26,0,0,1,0-.15c.05-.18.09-.34.14-.51a1.18,1.18,0,0,0,0-.46,1.05,1.05,0,0,1,0-.24l.07,0c.05-.14.09-.26.14-.37s0,0,0-.06a1.7,1.7,0,0,0-.26-.64,1.2,1.2,0,0,0-.67-.51s0,0-.07,0a.86.86,0,0,0-.39-.05,2.78,2.78,0,0,0-.5.11.86.86,0,0,0-.68.58.21.21,0,0,0,0,.14l.15.37c-.05.06-.11.1-.16.15s-.05,0,0,.07a1.15,1.15,0,0,0,.16.44c.07.08.12.18.18.25a.2.2,0,0,1,0,.16c0,.22,0,.42,0,.63a2.46,2.46,0,0,1,0,.28s-.07,0-.11,0a.33.33,0,0,0-.06.06.76.76,0,0,1-.46.26,9.51,9.51,0,0,0-1.22.46,4.51,4.51,0,0,1-.44.22,1.93,1.93,0,0,0-.49.31,1.3,1.3,0,0,0-.3.49,4.29,4.29,0,0,0-.17.64,2.41,2.41,0,0,1-.29.68,3.37,3.37,0,0,1-.28.38.18.18,0,0,1-.09.06c-.2,0-.39.11-.58.15s-.09,0-.12.08a4.18,4.18,0,0,1-.55.68v0l.12.23a.2.2,0,0,1,0,.11,1.7,1.7,0,0,1-.09.39c-.21.59-.44,1.17-.65,1.74a.71.71,0,0,1-.08.15,8.08,8.08,0,0,0-.57.6c-.11.14-.24.29-.37.43a1.14,1.14,0,0,0-.15.16,1.66,1.66,0,0,0-.15.58,1.8,1.8,0,0,0,0,.22l0,.4a1.41,1.41,0,0,0,0,.29c0,.14.09.27.15.45a.09.09,0,0,0,0,.07l.36.27.21-.13a3.14,3.14,0,0,1,.26-.87.86.86,0,0,1,.4-.48.5.5,0,0,1,.05.31.49.49,0,0,0,.13.47c.05,0,.11,0,.17,0a.33.33,0,0,1,.06-.32,1.76,1.76,0,0,0,.23-1c0-.11,0-.23,0-.34a.17.17,0,0,1,0-.07,4.94,4.94,0,0,0,.27-.42.42.42,0,0,1,.11-.13,11.69,11.69,0,0,0,1-.77.85.85,0,0,0,.24-.35,2.81,2.81,0,0,1,.43-.75s0-.06.08-.06c.21,0,.43-.07.65-.1.06,0,.08,0,.09-.07.07-.22.14-.45.22-.66a1.52,1.52,0,0,1,.09-.25c.11.21.21.39.32.58a.26.26,0,0,0,.12.15c.16.12.31.24.47.34a.2.2,0,0,1,.08.13c0,.12.05.28.09.42a.08.08,0,0,1,0,.1s-.06,0-.09.06a.22.22,0,0,0-.11.13c0,.21-.09.39-.14.58s-.07.24-.1.37l0,.12c0,.12-.06.24-.1.37a.55.55,0,0,1-.13.25c-.21.18-.41.4-.61.61,0,0,0,0-.05.08-.06.31-.12.65-.18,1s-.09.55-.14.81-.13.72-.21,1.08-.09.59-.14.88-.08.48-.13.73,0,.23,0,.36a4.51,4.51,0,0,0-.1.53,1.84,1.84,0,0,1-.44,1,.41.41,0,0,0,0,.09l-.06.4c0,.26-.08.51-.13.77s-.07.52-.11.8,0,.33-.06.48a2.12,2.12,0,0,1,0,.24,2.64,2.64,0,0,0-.08.49c0,.07,0,.13-.09.16l-.61.34-.26.14a.23.23,0,0,1,0,0c.09.27.18.56.28.82l.19.52a.24.24,0,0,1,0,.22.35.35,0,0,0,0,.3,3.34,3.34,0,0,1,.15.38l-.71.53-1.92-1.25-1.16,1.23c.11.17.23.3.34.45s.41.57.63.83a2.92,2.92,0,0,0,.21.28c.08.09.13.18.21.27-.21.28-.39.57-.6.86a5.12,5.12,0,0,1-.56-.15l-.7-.18a4.05,4.05,0,0,0-.47-.12,1.3,1.3,0,0,0-.25-.1l-.24,0c-.24.5-.45,1-.69,1.51Zm-55-.68a.4.4,0,0,1-.31.46c-.23,0-.51.06-.68-.26a1,1,0,0,0-.36-.89,2.44,2.44,0,0,1-.91,1.31.38.38,0,0,1-.49-.18c-.07-.22.21-.22.16-.4s-.22.1-.39,0c-.15-.37-.39-.73-.6-1.15-1,.52-.21,1.08-.71,1.81-1.4-.93-.85-2.7,0-3.79a2.78,2.78,0,0,1,.49-1.32c-.17-.67.16-1.41-.48-1.95-.23,0-.35.28-.53.28a6.22,6.22,0,0,0,.15,2.9,1.56,1.56,0,0,1-1-.94c-.58.22.56,1.44.37,1.88a6.65,6.65,0,0,1-1.51-1.53c-.05.32.26.82,0,1,0,0-.1,0-.11-.07a7.88,7.88,0,0,1-.48-2.19,12.56,12.56,0,0,0,1.25-2.38c.06-.11-.05-.24,0-.44.5-.53.41-1.41.86-2.05-.09-.21-.26-.19-.43-.16-.58.41-.9,2.56-1.37,2.61-.15,0-.2-.2-.39-.26a2.93,2.93,0,0,1-1.57,1.15,4.63,4.63,0,0,1,.7,1.54c0,.16-.11.19-.18.28.15.25.25,1.06-.35,1.08-.14-.24,0-.49-.12-.77-.69-.21-.68-.84-.74-1.45-.59.16-.18,1.14-1.07,1.37-.18.25,0,.58-.14.84a.21.21,0,0,1-.26,0c-.22-.42-.14-.92-.32-1.34a.45.45,0,0,1,.33-.46c-.06-.35.23-.5.47-.72-.23-.09-.3.09-.47.11-.23-.17-.5.19-.82-.05-.1,0,0-.23-.18-.36s-.64.69-.77,0c.13-.43.52-.36.83-.43.14,0,.15-.22.33-.29a3.43,3.43,0,0,1,1.07,0,2.73,2.73,0,0,1-.61-.67.26.26,0,0,1,.11-.28c-.58.05-.5-.42-1.08-.28a.49.49,0,0,1-.13-.43,4.68,4.68,0,0,1,2,.26c.4.29.39.83.68,1.15.6,0,.92-.45,1.32-.74-.08-.44-.28-.41-.09-.76a2.23,2.23,0,0,1-.09-.32,2.4,2.4,0,0,0,.26-1.7c-.12-.19-.43-.2-.51-.41-.24-.12-.55,0-.63-.35a1.87,1.87,0,0,0-.66.74c-.15.1-.26,0-.4,0,0,.36-.31.42-.6.52a1.16,1.16,0,0,1-.48.42c-.41.25-4,2.52-4.44.58,1.14-1.24,3.25-1.7,3.83-3.45a.52.52,0,0,0-.27-.43,4.42,4.42,0,0,0-.61.32c0,.14.13.21.17.36s.06.59-.26.82c-.35-.19.15-.69-.3-.84-.36.36,0,.9-.3,1.41-.38-.78,0-.85-.28-1.62-.15,0-.15.17-.31.19a.73.73,0,0,0-.65,0c-.14.07-.14.26-.31.32-.36-.11,0-.39-.13-.59a2.72,2.72,0,0,1-.42-.12c-.19.22.09.29.11.44a1.8,1.8,0,0,1-1.36.08c-.74.61-2.75-.27-2.64-1.34.45-.42,1.11-.28,1.54-.53.24,0,.29.17.48.17.83-1.21,3.63-.2,4.49-1.37-.31-.9-3.37-1-4.3-1.5-.31-.15-1.48-1.24-.73-1.63,1.6.18,3.3.29,4.9.58a.32.32,0,0,0,.22-.22,2.68,2.68,0,0,0-.45-.76c-.23-.33-3.35-3.61-1.19-4.2a23.29,23.29,0,0,0,3,3,2.64,2.64,0,0,1,.58.23,11.21,11.21,0,0,1-.18-3.14c0-.13-.1-.2-.07-.33s.2-.22.22-.39c-.43-1.1-.49-4.22,1.39-4.73.55,0,.1.6.42.73a.6.6,0,0,1-.12.32c.55,1.27.25,1.29.55,2.9.25,1.34,1.41,2.86,1.13,4.24.17.23.12.54.35.78.31,0,1,.83,1.18,1,1.17,1,1.56,1.08,2.42-.09,0-.41.35-.87-.17-1.23-.6,0-1.28.4-1.8.12a.72.72,0,0,1,.51-.71,3,3,0,0,0,.13-.3c.27-.16.7.08.85-.38a2.81,2.81,0,0,0-1.46-1.85,4.41,4.41,0,0,0-1.33,1,.23.23,0,0,1-.22,0c-.12-.17-.05-.37-.09-.53-.53-.77.1-1.23.61-1.82.51-.09,1.05,0,1.39-.46.21,0,.12.21.26.26,1.21-.43,3.34-.44,4.21.46a1.55,1.55,0,0,1,.78.33,1.51,1.51,0,0,0,.9-.56c.46.21.43.41-.18,1.32,0,.26.3.33.33.54a.32.32,0,0,1-.19.24c-.76-.13-.77-.13-1,.67.1.65,1.69,1.92.94,2.65-.4,0-.51-.53-.94-.53-.06.31.05.65-.07,1a4.3,4.3,0,0,1,.6.83c0,.07-.1.17-.05.29s.17-.18.31-.29a1.53,1.53,0,0,0,.85-.18l.42.08a.89.89,0,0,0,.43-.15c.09-.19-.24-.32,0-.54.16,0,.15.27.31.31s.14,0,.18-.13-.22-.35-.34-.52c.08-.27.4-.31.46-.51s.24.07.37,0c.2-.4.5-2.33.64-2.68.24-.69.58-.75.63-1.34,0-.16-.32-.19-.18-.42s.18,0,.31,0c.13-.45.12-.94.28-1.34,0-.22-.2-.24-.27-.38a.84.84,0,0,1,.06-.6c.2,0,.12.22.24.27.67-.51-.39-2.37.62-2.71.75,0,1.41,1.4,1.5,1.83a16.77,16.77,0,0,1,.12,5.43c0,.16-.27,1-.08,1.31,2.17-1,1.49-1.84,3.5-3.21,2,1.21-1.2,4.06-1.71,4.92.28,1,4.51-.34,5-.4.41.23.39,1.27-.17,1.27-.16-.17,0-.33,0-.49-.31-.09-.5.09-.69.26.06.19.17,0,.32.14a.62.62,0,0,1,.21.3c-.11.2-.32.19-.45.28a.86.86,0,0,0-.71-.22c-.12.15,0,.38-.08.57-.49-.08-.22-.57-.72-.51-.09.09-.2.18-.27.26s.06.24,0,.39a4,4,0,0,1-.52.29,2.1,2.1,0,0,0-.9,0c-.1.37-.48.29-.76.45.2.47.95.32,1.43.46,1.18.34,4.41.71,4.93,1.49.13.32-.11.54-.27.79a1.8,1.8,0,0,0-.66,0,2.19,2.19,0,0,0-.48.56c-.29.08-.48-.11-.7-.19a.42.42,0,0,0-.49.31,10.57,10.57,0,0,1-2.22-.51c-.2,0-.3.2-.56.2-.43-.2-1.55-.05-1.75-.69-.22-.1-.3.11-.45.17s-.39-.08-.63-.14c-.08,0-.19.1-.32.15.48.9,2.49,2.15,2.87,2.42.64.49,1.88.71,1.87,1.5a.46.46,0,0,0-.31.46c-.37.32-.77.16-1.11.16-.18-.1-.1-.27-.24-.35a.72.72,0,0,0-.77.13,15.41,15.41,0,0,1-1.9-1.07c-.13-.08-.05-.25-.12-.34s-.25.06-.37,0,0-.18,0-.28c-.29-.23-.46,0-.59-.34-.11-.1-.27,0-.4-.14s-.15-.23-.23-.35-.21.15-.33.1-.2-.39-.43-.45a3.09,3.09,0,0,0-.8,1.47c.22.54.11,1.18.51,1.61-.06.32-.34.38-.43.6a3.82,3.82,0,0,0,1.24.77c.36-.31.29-.92.79-1.2.18,0,.43,0,.57-.16.34,0,.35.33.56.44a2.69,2.69,0,0,1-.9,1.12c.4,0,.74-.11,1.07,0,.14.16.28.34.44.51s0,.23,0,.39c-.47.54-1,.11-1.52.07.34.36.76.63.82,1.19-.14.15-.12.4-.34.56.22.26.12.45-.13.64-.14-.22-.12-.53-.35-.71-.59-.16-.87-.48-.64-.94a.67.67,0,0,0-.43-.51c-.08.17.1.24.08.37s-.1.42-.15.65c-.22.15-.32.45-.59.52-.16.22,0,.47-.14.67-.22,0-.29-.13-.39-.23a1.13,1.13,0,0,0-.22-1.08.69.69,0,0,0,.22-.5c0-.19.17-.21.26-.3a.65.65,0,0,1,.35-.65c-.11-.23-.32-.11-.47-.18a2.54,2.54,0,0,1-1.08-1c-.25,0-.27.26-.49.23-.25-.18-.23-.56-.39-.74a.33.33,0,0,1,.08-.32,4.08,4.08,0,0,1-.69-1.53c-.18,0-.41,0-.63,0a3.7,3.7,0,0,0-.59.6c1.34,2.06,3.46,4.26,2.11,6.7a.21.21,0,0,1-.26,0q-.18-.22.21-.66c-.11-.14-.19-.3-.38-.35-.15.14,0,.26,0,.38a4.17,4.17,0,0,1-1.24,1.08c.11-.6.42-1.12.47-1.68.15-.11.22.11.34,0s-.12-.13-.11-.22.31-.37,0-.54a2.74,2.74,0,0,1-1.27,1.59c-.24-.47.23-1.65.19-2.11.18-.11.14-.14,0-.3-.14-.33-.25-.66-.69-.78-1.37,1.76.71,3.33.88,5,.06.46.17.57.25,1Zm258-29.43c-1.44,0-2.79.87-4.06,2.33-5.14.82-6.09,3.49-6.81,5.15a9.94,9.94,0,0,1,3.58-1c-.68.32-.83.92-1,1.52a5.76,5.76,0,0,1,2.49-1,6.45,6.45,0,0,0-3.43,4.39,4.31,4.31,0,0,1,3.27-1.32c-5.55,14.71,7.79,13.28,5.48,22.17,5.47-6.28,6.21-11.6,4.49-14.9,1.47.43,2.45,1.38,3.48,3.35.58-3.34-2.58-6.23-6.92-6.74a3.16,3.16,0,0,1,2.11,2.2c-1-.85-2.52-1.53-2.16-1.19,1.66,1.5,3.15,5.2,2.26,9.52a15.18,15.18,0,0,1-1.68,4.29,7,7,0,0,0,.11-5.17,5.66,5.66,0,0,1-1.15,3.21c.69-4.45-5.92-5.67-6.48-9.65a3.51,3.51,0,0,0,1.52.53,7.13,7.13,0,0,1,1.25-7.37,3,3,0,0,0,1.23,1.62,4.4,4.4,0,0,1,1.07-4.08l.08,1.31a1.65,1.65,0,0,0,1.93-.46c-.09,1.69.42,2.23,1.63,2.28,0,0,4.87.45,5.77.31a2.1,2.1,0,0,0,1.66-1.82.63.63,0,0,0-.55-.75l-4-1.62c-1-.46-2.08-.33-3.11,1-.59-1.08-2.17-1.83-3-3,1.29.25,2.55.44,3.75.66-.29-1.35-1.3-2.27-3.06-2.78a5,5,0,0,0-3.21.86,8.81,8.81,0,0,0,3.5-3.88m3-1.32-2.36,3.89a6.16,6.16,0,0,1,4.49,3.5c1.94.57,5.71,2.37,5.34,3.47-.06,1.31-1.84,2.32-2.2,2.67l-7.36-.62c2,.65,5.24,1.5,6.52,4.38a3.44,3.44,0,0,0-1.24-.73s2.66,4.31.88,8a3.05,3.05,0,0,0-1.27-3.12c.53,5.45-3.23,11-7.18,13.46,2.29-8.76-7.56-8.26-8-15.93a9.69,9.69,0,0,0-.81,2.73,9.65,9.65,0,0,1-1.91-6.16,7.74,7.74,0,0,0-2.37,2.17,10.22,10.22,0,0,1,1.66-6.85,11.27,11.27,0,0,0-2.46.68c.39-1.84,2.21-3.88,3.31-4.07a5.24,5.24,0,0,0-2.05,0s2.14-4.36,9.18-4.45a9.38,9.38,0,0,1,7.86-3M340.8,123.88c12,0,21.74,9.49,21.74,21.19s-9.73,21.19-21.74,21.19-21.72-9.49-21.72-21.19,9.73-21.19,21.72-21.19m-129.14,0c11.61,0,21.73,9.42,21.73,21.19a20.65,20.65,0,0,1-1.7,8.25,21.65,21.65,0,0,1-11.57,11.27,22.24,22.24,0,0,1-16.91,0,21.63,21.63,0,0,1-11.58-11.27,20.65,20.65,0,0,1-1.7-8.25c0-11.77,10.13-21.19,21.73-21.19m-112,12.82a20.43,20.43,0,0,1,1.78,8.37c0,11.7-9.74,21.19-21.74,21.19S58,156.77,58,145.07s9.74-21.19,21.73-21.19a22,22,0,0,1,15.69,6.55l-7,3.3.91,2.59-.13.82.3,3.23,0,2.07-1.15,4.12-.12,1.93-1.17.77-.73,1-.9,2-1.18.45-1.37.65-.05-.66.16-1.08.79-1.12.45-.71-.24-.73L84,147.12l-.75-.23-.76-.74-.71-.06-1-.48-.9.69-.85.09-1.08,1.85-.47,1.5.92,1.21.38,1.11,0,2.29-1.9,1.39-3,.91-2.23,2.54-.94.43-.88,1-.92-1.3-1.64-4.13.84-1.09,0-.6.16-1,.44-.82-.67-.45-.78,0,.11-.68,1.16-3-.18-.8-.63.55-1.24,3-.54,0-.66,1-.4,1-.43.89.1,1.31.78,2.28.4,2.45.17,1.86s6.47,6.77,18.67,4.53l2.13-.56c1.33-2.24,1.92-7.21,1.92-7.21l.39-2.34,1.54-2.15-.16-.54.51-.81-.06-.84L91,150l.59-.46v-.87l.68-1.78-.13-1L92,143.23l.29-1.9.79-1.28,6.6-3.35a20.81,20.81,0,0,0-4.27-6.27l3.28-1.58,3.47,6.58Zm47.37-12.82c12,0,21.73,9.49,21.73,21.19s-9.73,21.19-21.73,21.19-21.73-9.49-21.73-21.19,9.74-21.19,21.73-21.19m129.52,0c12,0,21.74,9.49,21.74,21.19s-9.74,21.19-21.74,21.19-21.73-9.49-21.73-21.19,9.74-21.19,21.73-21.19m193.06.66c12,0,21.75,9.51,21.75,21.21s-9.75,21.18-21.75,21.18-21.73-9.5-21.73-21.18,9.74-21.21,21.73-21.21m-82.58,31.61H387v-.08a20.71,20.71,0,0,1-2.77-10.32c0-11.7,9.75-21.21,21.75-21.21s21.73,9.51,21.73,21.21S418,166.93,406,166.93a21.83,21.83,0,0,1-18.94-10.78h5.28l.08-.68-.22,0c-.8-.07-1-.23-1.06-.28s-.15,0,0-.84l1-4.89h4.44l-1,4.59c-.18.95-.38,1-.47,1.09a2.32,2.32,0,0,1-1.24.33l-.17,0-.1.68h10.91l.1-.68a7.34,7.34,0,0,1-1.51-.27c-.11,0-.21,0,0-.88l.87-3.81,1.21-1.42a9.89,9.89,0,0,1,1.78-1.66,1.79,1.79,0,0,1,.92-.26h.85l-1.5,6.86a2.79,2.79,0,0,1-.4,1,.49.49,0,0,1-.09.1c-.27.34-1.36.35-1.36.35l-.09.68h5.36l.1-.84-.23,0c-.87-.06-1.1-.2-1.17-.26s-.17.13,0-.7l1.31-6h1.22a7.25,7.25,0,0,0,3.57-.82,3.43,3.43,0,0,0,.61-.41l-1.56,7.19c-.16.8-.36.66-.46.75-.31.34-1.38.31-1.38.31l-.1.84h10.56l.59-2.82h-.65a3.28,3.28,0,0,1-1.9,1.48,8.46,8.46,0,0,1-2.64.39,8.71,8.71,0,0,1-1.93-.1c-.08,0-.1-.14,0-.36l1.17-5.08h2.56c.92,0,1.14.17,1.18.24s.21.24.21,1l0,.21h.69l.8-3.9h-.69l-.06.13a2.25,2.25,0,0,1-.72,1.06c-.14.13-.49.27-1.37.27h-2.46l1.21-4.76a1,1,0,0,1,.12-.38l2.76-.06c1.3,0,1.68.2,1.8.29.38.35.27,1.15.27,1.15h.66l.49-2.37H415.5l-.09.47h.23c.79.07,1,.21,1.05.28a2.85,2.85,0,0,1-.2,1.53c-.16.65-1.29,1.1-1.34,1.12a7.25,7.25,0,0,1-2.65.37,10.58,10.58,0,0,1-1.92-.08c-.09,0-.1-.15-.07-.37l1.19-5.73h2.56c.92,0,1.13.18,1.19.24.38.39.19,1.46.19,1.46h.68l.8-3.92h-.69a1.32,1.32,0,0,1-.78,1,2.62,2.62,0,0,1-1.37.28H411.8l.87-3.69c.05-.26.17-.39.3-.42h2.6c1.27,0,1.66.19,1.78.29s.29.47.29,1.36v.21h.65l.49-2.59h-4.73l.68-3a2,2,0,0,1,.46-1.12,2.29,2.29,0,0,1,1.22-.29l.16,0,.1-.68h-5.34l-.08.68.23,0c.79,0,1,.2,1,.26s.16.31,0,1.06l-.67,3.28h-4.95l1.07-5.3H395.74l-.64,3.37h.68l0-.14a6.43,6.43,0,0,1,1.18-2.08c.35-.62,2.78-.41,2.78-.41l-1.88,9.29c-.2.93-.4,1-.5,1.08a2.43,2.43,0,0,1-1.36.33h-.16l-.08.69h5.56l.1-.69h-.24c-.86-.06-1.12-.19-1.21-.28s-.16,0,0-.83l2-9.59h1.08c1.2,0,1.62.19,1.78.37a2.26,2.26,0,0,1,.29,2l-1.39,6.92c-.19.93-.39,1-.47,1.08a2.68,2.68,0,0,1-1.27.33h-.14l-.11.69h5.32l.11-.68-.25,0c-.78-.06-1-.21-1-.28s-.16,0,0-.83l.88-4.07h2.7c.57.06.74.19.78.24s.14.31,0,1.07l-1.78,7.93c-.15.69-.32.78-.41.86a2.56,2.56,0,0,1-1.25.35H404.7l-.1.9.63,0c.43,0-.49.86-.61,1l-1,1.08-1.48-4.81v0c-.06-.08-.32-.67.19-.81a4,4,0,0,1,.72-.07h.34l.11-.59h-7l-.12.56.25,0c.78.05,1,.21,1,.27s.16.19,0,1l-1,4.23h-4.45l1-4.14a2,2,0,0,1,.46-1.12c.14-.12.45-.15,1.21-.2h.16l.11-.57h-5.33l-.12.56.25,0c.77.05,1,.1,1.06.16s.14.3,0,1.07L389,154c-.18.95-.37,1-.47,1.08a2.34,2.34,0,0,1-1.26.34l-.15,0,0,.42,0,.18Z" transform="translate(-58 -59.94)"/><path class="cls-1" d="M533.87,124.54c-12,0-21.73,9.51-21.73,21.21s9.74,21.18,21.73,21.18,21.73-9.5,21.73-21.18S545.86,124.54,533.87,124.54Zm-2.77,35.54c-2.88-1.46-5.45-4-6.21-6.06a8.86,8.86,0,0,1-.13-5.25,55.24,55.24,0,0,1,3.34-6.32c5.09-8.71,6.26-11.68,5.4-13.91-.2-.53-.29-.9-.19-.84a39.07,39.07,0,0,1,3.51,5.64c1.95,4.07,1.68,5.42-2.09,10.87-3.48,5-4.46,7.3-4.32,10.09a8.1,8.1,0,0,0,2.17,5.33,4.09,4.09,0,0,1,.88,1.43A8.89,8.89,0,0,1,531.1,160.08Zm3.38-3a6.8,6.8,0,0,1-1.36-2.16c-.68-1.86,0-3.59,3-7.9.85-1.24,1.81-2.73,2.12-3.29a9.66,9.66,0,0,0,1.24-4.77l-.12-1,.6,1.18a5.52,5.52,0,0,1,.61,3.28,6.4,6.4,0,0,1-.7,3.64,33.08,33.08,0,0,1-2.49,4c-2.23,3.06-3,4.56-2.83,6A2.51,2.51,0,0,1,534.48,157.12Zm9.31-5.41a26.72,26.72,0,0,1-3.62,4.35,29.85,29.85,0,0,0-3.28,3.82c-.1.29-.27.52-.4.52s-.21-.55-.12-1.63c.14-2.16,1-4,3.15-6.44,2.41-2.82,3.57-5.76,3.35-8.44l-.1-1.29.55.83A8.35,8.35,0,0,1,543.79,151.71Z" transform="translate(-58 -59.94)"/><text class="cls-2" transform="translate(6.45 121.89)">BEIJING</text><text class="cls-3" transform="translate(63.44 121.9)">L<tspan class="cls-4" x="3.58" y="0">O</tspan><tspan class="cls-5" x="8.8" y="0">S</tspan><tspan class="cls-6" x="13.44" y="0"> </tspan><tspan class="cls-7" x="15.57" y="0">ANG</tspan><tspan class="cls-8" x="29.88" y="0">E</tspan><tspan class="cls-4" x="34.07" y="0">LE</tspan><tspan class="cls-8" x="41.81" y="0">S</tspan></text><text class="cls-9" transform="translate(133.26 121.93)">FRA<tspan class="cls-10" x="12.55" y="0">N</tspan><tspan class="cls-6" x="17.11" y="0">K</tspan><tspan x="21.39" y="0">F</tspan><tspan class="cls-11" x="25.16" y="0">U</tspan><tspan class="cls-12" x="29.81" y="0">R</tspan><tspan class="cls-8" x="34.18" y="0">T</tspan></text><text class="cls-13" transform="translate(202.46 121.94)">T<tspan class="cls-7" x="3.66" y="0">O</tspan><tspan class="cls-8" x="8.88" y="0">R</tspan><tspan class="cls-14" x="13.52" y="0">ON</tspan><tspan class="cls-15" x="24.07" y="0">T</tspan><tspan class="cls-8" x="27.6" y="0">O</tspan></text><text class="cls-16" transform="translate(265.19 121.93)">S<tspan class="cls-7" x="4.5" y="0">TU</tspan><tspan class="cls-5" x="13.08" y="0">T</tspan><tspan class="cls-17" x="17" y="0">T</tspan><tspan class="cls-5" x="20.54" y="0">G</tspan><tspan class="cls-7" x="25.89" y="0">A</tspan><tspan class="cls-18" x="30.16" y="0">R</tspan><tspan class="cls-5" x="34.66" y="0">T</tspan></text><text class="cls-19" transform="translate(331.78 121.99)">S<tspan class="cls-7" x="4.64" y="0">HANG</tspan><tspan class="cls-5" x="23.72" y="0">H</tspan><tspan class="cls-7" x="28.61" y="0">A</tspan><tspan x="32.88" y="0">I</tspan></text><text class="cls-20" transform="translate(393.1 121.99)">V<tspan class="cls-21" x="3.47" y="0">A</tspan><tspan class="cls-11" x="7.75" y="0">NC</tspan><tspan class="cls-22" x="17.29" y="0">O</tspan><tspan class="cls-23" x="22.26" y="0">U</tspan><tspan class="cls-7" x="26.91" y="0">V</tspan><tspan class="cls-11" x="30.95" y="0">E</tspan><tspan class="cls-5" x="34.88" y="0">R</tspan></text><text class="cls-24" transform="translate(458.29 121.89)">MONTREAL</text></svg>