<?xml version="1.0" encoding="utf-8"?>
<!-- Generator: Adobe Illustrator 23.0.3, SVG Export Plug-In . SVG Version: 6.00 Build 0)  -->
<svg version="1.1" id="Layer_1" xmlns="http://www.w3.org/2000/svg" xmlns:xlink="http://www.w3.org/1999/xlink" x="0px" y="0px"
	 viewBox="0 0 17.4 17" style="enable-background:new 0 0 17.4 17;" xml:space="preserve">
<title>Website_jobs_office_logos-gold</title>
<path fill="#fff" d="M4.9,1.5h7.7V1.2H4.9V1.5z M10.6,10.3h-0.3l0.3-1.4h1.5V9c-0.1,0.4-0.3,0.8-0.7,1.1C11.2,10.3,10.9,10.3,10.6,10.3z
	 M5.8,12.5c-0.3,0-0.4-0.1-0.4-0.1s-0.1-0.1,0-0.4l0.8-4L7,10.3l-0.3,1.5c-0.1,0.4-0.2,0.5-0.2,0.5C6.3,12.4,6.1,12.5,5.8,12.5
	C5.9,12.5,5.8,12.5,5.8,12.5z M4.8,13.4h7.7v-0.2H4.9L4.8,13.4z M1.1,12.6C0.4,11.4,0,9.9,0,8.5C0.1,3.7,4-0.1,8.7,0
	c4.7-0.1,8.6,3.7,8.7,8.5c0,4.7-3.9,8.6-8.7,8.5l0,0C5.6,17,2.7,15.4,1.1,12.6l2.1,0.1v-0.2l0,0c-0.3,0-0.4-0.1-0.4-0.1
	s-0.1-0.1,0-0.4l0.4-2H5l-0.4,1.8c0,0.2-0.1,0.4-0.2,0.5c-0.2,0.1-0.3,0.1-0.5,0.1H3.8v0.2h4.3v-0.2H8c-0.4,0-0.5-0.1-0.5-0.1
	s-0.1-0.1,0-0.4l0.3-1.6l0.5-0.6C8.6,9.5,8.8,9.2,9.1,9c0.1-0.1,0.2-0.1,0.4-0.1h0.3l-0.6,2.9c-0.1,0.3-0.1,0.5-0.2,0.5
	s-0.2,0.1-0.5,0.1l0,0v0.2h2.2v-0.2h-0.1c-0.4,0-0.4-0.1-0.5-0.1s-0.1-0.1,0-0.4l0.3-1.4h0.5c0.5,0,1-0.1,1.4-0.3l0.2-0.2l-0.4,1.9
	c-0.1,0.3-0.1,0.4-0.2,0.4c-0.2,0.1-0.3,0.1-0.5,0.1h-0.1v0.2h4.1l0.2-1.1h-0.2l0,0c-0.2,0.3-0.4,0.6-0.7,0.7
	c-0.3,0.1-0.7,0.2-1.1,0.1c-0.3,0-0.5,0-0.8,0v-0.1l0.4-2.2h1c0.4,0,0.4,0.1,0.5,0.1c0.1,0.2,0.1,0.3,0.1,0.5v0.1H15l0.3-1.6h-0.2
	v0.1c-0.1,0.2-0.2,0.4-0.3,0.5s-0.2,0.1-0.6,0.1h-1l0.5-2.3c0-0.1,0-0.1,0.1-0.2h0.1h1c0.5,0,0.7,0.1,0.7,0.1S16,7.6,16,7.9V8h0.2
	l0.2-1h-3.8v0.2h0.1c0.3,0,0.4,0.1,0.4,0.1s0.1,0.1,0,0.4L13,8.1c-0.1,0.3-0.3,0.4-0.5,0.4h-0.1c-0.3,0.1-0.7,0.2-1.1,0.1
	c-0.3,0-0.5,0-0.8,0V8.5L11,6.2h1c0.4,0,0.5,0.1,0.5,0.1c0.1,0.2,0.1,0.3,0.1,0.5v0.1h0.2l0.3-1.6h-0.2l0,0
	c-0.1,0.2-0.2,0.4-0.3,0.5C12.5,6,12.4,6,12,6h-1l0.3-1.7c0,0,0-0.1,0.1-0.1c0,0,0,0,0.1,0h1c0.5,0,0.7,0.1,0.7,0.1s0.1,0.2,0.1,0.5
	V5h0.2l0.3-1H12l0.3-1.3c0-0.2,0.1-0.3,0.2-0.5c0.2-0.1,0.3-0.1,0.5-0.1h0.1L13,2h-2.2v0.2h0.1c0.3,0,0.4,0.1,0.4,0.1s0.1,0.1,0,0.4
	L11,4H9l0.4-2H4.6L4.3,3.2h0.2l0,0C4.8,2.6,4.9,2.4,5,2.3c0.2-0.1,0.5-0.2,0.8-0.2h0.4L5.4,6.2C5.3,6.6,5.2,6.7,5.2,6.8
	S5,6.9,4.6,6.9l0,0v0.2h2.2V6.9H6.7c-0.3,0-0.4-0.1-0.5-0.1s-0.1-0.1,0-0.4l0.9-4.2h0.4c0.5,0,0.6,0.1,0.7,0.2
	c0.2,0.2,0.2,0.5,0.1,0.8v0.1l-0.6,3C7.6,6.6,7.6,6.7,7.5,6.7C7.4,6.8,7.2,6.9,7,6.9l0,0v0.2h2.1V6.9H9c-0.1,0-0.3,0-0.4-0.1
	c0,0-0.1-0.1,0-0.4L9,4.2h1.1c0.2,0,0.3,0.1,0.3,0.1s0.1,0.1,0,0.4L9.7,8.2C9.6,8.5,9.6,8.6,9.5,8.6C9.4,8.7,9.2,8.7,9,8.7H8.2v0.2
	h0.1c0.1,0,0.2,0,0.3,0s0.1,0,0.1,0.1v0.1L8.5,9.2L7.9,10L7.2,7.8l0,0V7.7V7.5c0-0.1,0.1-0.1,0.1-0.1c0.1,0,0.2,0,0.3,0h0.1V7.2H4.9
	v0.2H5c0.3,0,0.4,0.1,0.4,0.1s0.1,0.1,0,0.4L5,9.8H3.2L3.6,8c0.1-0.3,0.1-0.4,0.2-0.4S4,7.4,4.3,7.4h0.1V7.2H2.2v0.2h0.1
	c0.3,0,0.4,0.1,0.4,0.1s0.1,0.1,0,0.4l-0.8,3.9c0,0.2-0.1,0.4-0.2,0.5c-0.2,0.1-0.3,0.1-0.5,0.1H1.1V12.6L1.1,12.6L1.1,12.6
	L1.1,12.6z"/>
</svg>
