<?xml version="1.0" encoding="utf-8"?>
<!-- Generator: Adobe Illustrator 23.0.3, SVG Export Plug-In . SVG Version: 6.00 Build 0)  -->
<svg version="1.1" id="Layer_1" xmlns="http://www.w3.org/2000/svg" xmlns:xlink="http://www.w3.org/1999/xlink" x="0px" y="0px"
	 viewBox="0 0 17.4 17" style="enable-background:new 0 0 17.4 17;" xml:space="preserve">
<title>Website_jobs_office_logos-gold</title>
<g>
	<path fill="#fff" d="M7,6.3c-0.8-0.2-1.6,0-2.2,0.6C4.5,7,4.3,7.2,4.1,7.5C3.9,7.7,3.7,8,3.7,8.3C3.6,8.6,3.5,8.9,3.6,9.2
		c0,0.3,0.2,0.6,0.3,0.9c0.2,0.3,0.4,0.5,0.7,0.6c0.2,0.1,0.5,0.2,0.8,0.2s0.5-0.1,0.8-0.2c0.3-0.1,0.5-0.3,0.8-0.4
		c0.3-0.4,0.7-0.8,1-1.2s0.6-0.9,0.8-1.3C8.4,7.1,7.8,6.6,7,6.3z"/>
	<path fill="#fff" d="M8.7,0C4-0.1,0.1,3.7,0,8.5l0,0c0.1,4.7,4,8.6,8.7,8.5l0,0c4.7,0,8.6-3.8,8.7-8.5C17.3,3.7,13.4-0.1,8.7,0z M14.4,9.2
		c-0.2,0.6-0.6,1.1-1.1,1.5c-0.3,0.2-0.6,0.3-1,0.4c-0.3,0-0.7,0-1-0.1s-0.7-0.2-1-0.4C10,10.4,9.7,10.2,9.5,10l0.1-0.1
		c0.4,0.4,0.9,0.7,1.5,0.7s1.2-0.2,1.6-0.5c0.5-0.3,0.9-0.8,1.2-1.4c0.3-0.9-0.2-1.9-1.1-2.2c-0.1,0-0.2-0.1-0.3-0.1
		c-0.6,0-1.2,0.1-1.6,0.5c-0.4,0.2-0.7,0.5-1,0.9c-0.2,0.3-0.5,0.7-0.7,1s-0.4,0.7-0.7,1c-0.2,0.3-0.6,0.6-0.9,0.9
		c-0.3,0.2-0.7,0.4-1.1,0.4c-0.4,0.1-0.7,0-1.1,0c-0.4-0.1-0.7-0.3-1-0.5C4,10.4,3.7,10.1,3.5,9.8s-0.3-0.6-0.4-1
		C3,8.4,3,8.1,3.1,7.8c0-0.3,0.2-0.6,0.3-0.8c0.2-0.3,0.4-0.5,0.7-0.7C4.5,6,5,5.8,5.4,5.8s0.9,0,1.3,0.2C7.2,6.1,7.6,6.3,8,6.6
		c0.4,0.3,0.7,0.6,1,1C9.2,7.4,9.3,7.2,9.5,7s0.4-0.4,0.6-0.5c0.3-0.2,0.6-0.4,1-0.4s0.7,0,1.1,0.1c0.4,0.1,0.7,0.3,1,0.5
		s0.6,0.5,0.8,0.8C14.4,7.9,14.5,8.6,14.4,9.2z"/>
</g>
</svg>
