<?xml version="1.0" encoding="utf-8"?>
<!-- Generator: Adobe Illustrator 23.0.3, SVG Export Plug-In . SVG Version: 6.00 Build 0)  -->
<svg version="1.1" id="Layer_1" xmlns="http://www.w3.org/2000/svg" xmlns:xlink="http://www.w3.org/1999/xlink" x="0px" y="0px"
	 viewBox="0 0 17.4 17" style="enable-background:new 0 0 17.4 17;" xml:space="preserve">
<style type="text/css">
	.st0{fill-rule:evenodd;clip-rule:evenodd;}
</style>
<title>Website_jobs_office_logos-gold</title>
<path fill="#fff" class="st0" d="M8.6,6L9,6.1C9,6,9,6,8.9,5.9c0.2-0.1,0.3-0.2,0.5-0.4l0,0H9.2c0-0.1,0.1-0.2,0.1-0.3H9c0,0-0.1-0.1-0.1-0.2
	c0,0.1-0.1,0.2-0.2,0.2l0,0c0-0.2,0-0.3,0-0.5L8.6,4.9C8.5,4.8,8.4,4.7,8.3,4.5c0,0.1-0.1,0.2-0.1,0.4L8,4.8l0,0
	C8,5,8.1,5.1,8.1,5.3l0,0L8,5.1c0,0.1,0,0.1,0,0.2H7.7c0,0.1,0.1,0.2,0.1,0.3L7.7,5.7L8.1,6v0.2L8.6,6L8.5,6.2h0.1
	C8.6,6.2,8.6,6.1,8.6,6z M10.7,10.2L10.7,10.2c0-0.1,0-0.2,0-0.3c0-0.3,0-0.5,0-0.8s0-0.4,0-0.6s0-0.4,0.1-0.7V7.7l-0.1-0.1V7.5V7.4
	c0,0,0-0.1-0.1-0.1c0-0.1,0-0.1-0.1-0.2c0,0-0.1-0.1-0.1-0.2c0,0,0,0-0.1-0.1S10,6.6,9.9,6.4l0,0c0,0,0-0.1-0.1-0.1
	c0,0,0-0.1-0.1-0.1V6.1c0,0,0,0-0.1,0l0,0c0,0.2,0,0.3,0,0.5c0,0.1,0,0.1,0.1,0.2c0,0,0,0.1,0.1,0.1C10,7.2,10,7.3,10,7.5
	c0.1,0.2,0.1,0.4,0.2,0.5c0,0.1,0.1,0.1,0.1,0.2c0.1,0.2,0.1,0.5,0.2,0.7c0,0.2,0.1,0.3,0.1,0.5s0,0.3,0.1,0.5L10.7,10.2z M10,12
	L10,12c0-0.3-0.1-0.6-0.1-0.9c0-0.1-0.1-0.2-0.1-0.3v-0.1c0-0.1-0.1-0.1-0.1-0.2c0-0.1-0.1-0.1-0.1-0.2c0-0.1,0-0.2-0.1-0.2V10V9.9
	L9.4,9.8C9.2,9.5,9,9.1,8.8,8.8L8.7,8.7H8.6l0,0C8.5,8.9,8.4,9,8.3,9.1c0,0.2-0.1,0.4-0.2,0.6S8,9.8,8,9.9l-0.2,0.2c0,0,0,0,0,0.1
	s0,0.2,0,0.3c0,0.2-0.1,0.3-0.2,0.5c0,0.1,0,0.1,0,0.2L8.1,11v0.1c0,0.1,0.1,0.2,0.1,0.4s0.1,0.2,0.1,0.3s0.1,0.1,0.1,0.1
	c0.1,0,0.2,0,0.3,0c0,0,0.1,0,0.1-0.1s0-0.1,0.1-0.2c0-0.1,0-0.1,0-0.2c0-0.1,0.1-0.2,0.1-0.3S9.1,11,9.1,11s0.2,0,0.3,0h0.2h0.1
	v0.9L10,12z M7.4,12v-0.7l0,0c-0.1,0.2-0.1,0.5-0.2,0.7H7.4z M5.7,14.4l0.1-0.1C5.9,14.1,6,14,6.2,13.8c0.1-0.1,0.2-0.2,0.3-0.3
	c0.1-0.1,0.3-0.2,0.5-0.3c0.1-0.1,0.3-0.1,0.4-0.2c0.2-0.1,0.4-0.1,0.6-0.2c0.2-0.1,0.5-0.1,0.8-0.1H9h0.3c0.2,0,0.3,0.1,0.5,0.1
	l0.2,0.1c0.1,0,0.3,0.1,0.4,0.2c0.2,0.1,0.3,0.2,0.5,0.3l0.3,0.2c0.1,0.1,0.3,0.3,0.4,0.4c0.1,0.1,0.2,0.2,0.2,0.3l0,0h1.4h0.1
	l0.2-0.2c0,0,0,0,0.1-0.1c-0.1-0.2-0.2-0.4-0.4-0.6l-0.8,0.3l-0.3-0.4c0.2-0.2,0.3-0.5,0.5-0.8L12.1,12l0,0L12,12.3l-0.3,0.2
	l-0.3,0.2L11,12.5c0.1-0.3,0.2-0.6,0.2-0.9L11,11.5l0,0c0-0.1,0-0.2,0-0.3s0-0.4,0-0.6l0.1-0.8c0-0.3,0.1-0.6,0.1-0.8l0.1-0.8V7.9
	V7.8c0.1-0.1,0.1-0.1,0.2-0.2c0-0.1,0-0.2-0.1-0.3s0,0,0-0.1s0-0.1,0-0.2c0-0.4,0.1-0.8,0.1-1.1s0.1-0.7,0.1-1L11.7,4
	c0-0.3,0-0.7,0.1-1c0-0.1,0-0.2,0.1-0.3c0-0.1,0-0.1,0-0.2c0,0,0,0,0-0.1s0-0.2,0-0.3s0-0.1,0-0.2c0-0.1,0-0.2-0.1-0.3
	c0-0.1,0-0.2,0-0.2l0,0c0,0,0,0-0.1,0v0.1c-0.1,0.1-0.1,0.3-0.2,0.4s-0.1,0.3-0.2,0.5c0,0.1,0,0.2-0.1,0.2c0,0.1,0,0.1,0,0.2
	c0,0.1,0,0.1,0,0.2c0,0.3,0,0.5,0,0.8L11,5c0,0.2,0,0.5,0,0.7l-0.1,0.8v0.3l0,0c0,0-0.1-0.2-0.1-0.3s0-0.3-0.1-0.5V5.9V5.8l0,0
	c-0.1-0.1-0.2-0.2-0.2-0.3l0,0l-0.2-0.1l0,0c-0.1-0.1-0.2-0.3-0.2-0.4C10,5,9.9,4.9,9.9,4.8s0-0.2-0.1-0.2l0-0.1
	C9.7,4.4,9.6,4.4,9.6,4.4H9.5L9.3,4.3L9.1,4.2H8.9c-0.1,0-0.1,0-0.2-0.1l0,0l0,0c0,0,0,0,0-0.1l0.1-0.2c0-0.1,0-0.1,0-0.2V3.5l0,0
	c0,0,0-0.1,0-0.2l0,0c0-0.1,0-0.2-0.1-0.3C8.6,3.1,8.5,3,8.4,3l0,0H8.3H8.1C7.9,3,7.8,3.1,7.8,3.2l0,0l0.1,0.2H7.8l0,0
	c0,0.1,0,0.1,0.1,0.2L8,3.7c0,0,0,0,0,0.1V4v0.1l0,0l0,0c0,0.1-0.1,0.1-0.2,0.1c-0.2,0-0.3,0.1-0.5,0.2L7,4.5
	c-0.1,0-0.1,0.1-0.2,0.1c0,0.1-0.1,0.2-0.1,0.2C6.7,4.9,6.6,5,6.6,5c0,0.1-0.1,0.2-0.1,0.3L6.4,5.5l0,0L6.2,5.6l0,0
	C6.1,5.7,6,5.8,5.9,5.9l0,0L5.8,6l0,0c0,0.1,0,0.1,0,0.2c0,0.2-0.1,0.4-0.2,0.7l0,0C5.5,6.9,5.4,7,5.4,7.1S5.3,7.2,5.2,7.3
	c0,0,0,0,0,0.1S5.1,7.5,5.1,7.6v0.1c0,0.1,0,0.1,0,0.2V8c0,0.1,0,0.1,0.1,0.2l0,0l0.1,0.1h0.1c0-0.1,0-0.1,0-0.2
	C5.4,8,5.5,8,5.6,7.9V8c0,0.1,0,0.1,0.1,0.2c0,0,0,0,0.1,0V8.1C5.9,8,5.9,7.9,5.9,7.7V7.6l0,0L6,7.2c0,0,0,0,0-0.1
	c0.1,0,0.3-0.1,0.4-0.2l0.1-0.1c0-0.1,0.1-0.2,0.2-0.3l0,0H7l0,0c0-0.1,0-0.2,0.1-0.3V6.1c0,0.1,0.1,0.2,0.1,0.2s0,0,0.1,0.1
	l0.2,0.1l0,0c0,0.1,0,0.1,0,0.2l0,0l0,0c0,0,0,0,0,0.1L7.4,7L7.3,7.3v0.1L7,7.7l0,0C7,7.8,7,8,6.9,8.1v0.3c0,0.1,0,0.3-0.1,0.4
	L6.7,9.2c0,0.1,0,0.2,0,0.3v0.1c0,0.1,0,0.1,0,0.2c0,0.2-0.1,0.3-0.2,0.4l0,0v0.2c0,0.1,0,0.2,0,0.3s0,0.2,0,0.3s0,0.1,0,0.2
	s0,0.1,0,0.1c0,0.1,0,0.1,0,0.2c0,0,0,0,0,0.1L6,11.7l-0.1,0.1l0,0C5.9,11.9,6,12,6,12.1s0,0.1,0.1,0.2v0.1v0.1v0.1l-0.3,0.2L5,12.4
	l-0.5,0.5l0.1,0.2L5,13.4l0.1,0.1l0.1,0.1L4.9,14l-0.2-0.1l-0.3-0.1H4.2H4.1H4c-0.1,0.2-0.2,0.4-0.3,0.6H5.7z M8.7,0
	c4.7-0.1,8.6,3.7,8.7,8.5c0,4.7-3.9,8.6-8.7,8.5l0,0C4,17.1,0.1,13.3,0,8.5l0,0C0.1,3.7,4-0.1,8.7,0z"/>
</svg>
