<?xml version="1.0" encoding="utf-8"?>
<!-- Generator: Adobe Illustrator 23.0.3, SVG Export Plug-In . SVG Version: 6.00 Build 0)  -->
<svg version="1.1" id="Layer_1" xmlns="http://www.w3.org/2000/svg" xmlns:xlink="http://www.w3.org/1999/xlink" x="0px" y="0px"
	 viewBox="0 0 17.4 17" style="enable-background:new 0 0 17.4 17;" xml:space="preserve">
<style type="text/css">
	.st0{fill-rule:evenodd;clip-rule:evenodd;}
</style>
<title>Website_jobs_office_logos-gold</title>
<path fill="#fff" class="st0" d="M10.7,4.6l-1-0.2L10.5,5L10.7,4.6z M9.6,2C9,2.1,8.4,2.4,8,3C6.8,3.1,5.7,3.8,5.3,5c0.4-0.2,0.9-0.4,1.4-0.4
	C6.5,4.7,6.4,5,6.3,5.2C6.6,5,7,4.9,7.3,4.8c-0.7,0.4-1.2,1-1.4,1.8c0.3-0.4,0.8-0.5,1.3-0.5C5,12,10.4,11.4,9.4,15
	c2.2-2.5,2.5-4.6,1.8-6c0.6,0.2,1.2,0.7,1.4,1.3c0.2-1.3-1-2.5-2.8-2.7c0.4,0.1,0.7,0.5,0.8,0.9c-0.4-0.3-1-0.6-0.9-0.5
	c0.9,1,1.3,2.5,0.9,3.8c-0.1,0.6-0.3,1.2-0.7,1.7c0.3-0.7,0.3-1.4,0-2.1c0,0.5-0.2,0.9-0.5,1.3c0.3-1.8-2.3-2.3-2.5-3.9
	C7.3,9,7.5,9.1,7.7,9.1c-0.4-1-0.2-2.2,0.5-3c0.1,0.3,0.3,0.5,0.5,0.7c-0.1-0.6,0-1.2,0.4-1.6v0.5c0.3,0.1,0.6,0,0.8-0.2
	c0,0.7,0.2,0.9,0.6,0.9c0,0,1.9,0.2,2.3,0.1c0.4-0.1,0.6-0.4,0.7-0.7c0-0.1-0.1-0.3-0.2-0.3l0,0l-1.6-0.7c-0.5-0.2-1,0-1.2,0.4
	C10.3,4.8,9.6,4.5,9.3,4c0.5,0.1,1,0.2,1.5,0.3c-0.2-0.6-0.6-1-1.2-1.1c-0.5,0-0.9,0.1-1.3,0.3C8.9,3.2,9.4,2.7,9.6,2z M10.9,1.5
	l-1,1.6c0.8,0.1,1.5,0.7,1.8,1.4c0.8,0.2,2.3,1,2.1,1.4s-0.7,0.9-0.8,1l-3-0.2c1.1,0.2,2,0.8,2.6,1.8c-0.1-0.1-0.3-0.2-0.5-0.3
	c0.6,1,0.7,2.1,0.4,3.2c0.1-0.5-0.1-1-0.5-1.2c0.1,2.2-1,4.2-2.9,5.4c0.9-3.5-3-3.3-3.2-6.4c-0.2,0.3-0.3,0.7-0.3,1.1
	C5,9.5,4.8,8.6,4.8,7.7c-0.4,0.2-0.7,0.5-1,0.9c-0.1-1,0.2-2,0.7-2.8C4.2,5.9,3.9,6,3.5,6.1c0.2-0.7,0.7-1.3,1.3-1.6
	C4.6,4.4,4.3,4.4,4,4.5c0,0,0.9-1.8,3.7-1.8C8.5,1.8,9.7,1.4,10.9,1.5L10.9,1.5z M8.7,0c4.7-0.1,8.6,3.7,8.7,8.5l0,0
	c0,4.7-3.9,8.6-8.7,8.5l0,0C4,17.1,0.1,13.3,0,8.5l0,0C0.1,3.7,4-0.1,8.7,0z"/>
</svg>
